<svg height="512" viewBox="0 0 42 60" width="512" xmlns="http://www.w3.org/2000/svg"><g id="Page-1" fill="none" fill-rule="evenodd"><g id="006---Law-Document" fill="rgb(0,0,0)" fill-rule="nonzero"><path id="Shape" d="m3 52h15v5c0 1.6568542 1.3431458 3 3 3s3-1.3431458 3-3v-5h15c1.6568542 0 3-1.3431458 3-3v-46c0-1.65685425-1.3431458-3-3-3h-31c-.26519481.00005664-.51950727.10545063-.707.293l-7 7c-.18754937.18749273-.29294336.44180519-.293.707v41c0 1.6568542 1.34314575 3 3 3zm11-23h14v12h-14zm3 14h8v1c0 .5522847-.4477153 1-1 1h-6c-.5522847 0-1-.4477153-1-1zm5 14c0 .5522847-.4477153 1-1 1s-1-.4477153-1-1v-10h2zm18-54v46c0 .5522847-.4477153 1-1 1h-15v-3c1.6568542 0 3-1.3431458 3-3v-1h1.278c.3544126.6167513 1.0106732.997855 1.722 1h3c1.1045695 0 2-.8954305 2-2v-14c0-1.1045695-.8954305-2-2-2h-3c-.7113268.002145-1.3675874.3832487-1.722 1h-14.556c-.3544126-.6167513-1.0106732-.997855-1.722-1h-3c-1.1045695 0-2 .8954305-2 2v14c0 1.1045695.8954305 2 2 2h3c.7113268-.002145 1.3675874-.3832487 1.722-1h1.278v1c0 1.6568542 1.3431458 3 3 3v3h-15c-.55228475 0-1-.4477153-1-1v-40h4c1.65685425 0 3-1.34314575 3-3v-4h30c.5522847 0 1 .44771525 1 1zm-10 25h3v14h-3zm-18 14h-3v-14h3zm-8.586-35 3.586-3.586v2.586c0 .55228475-.44771525 1-1 1z"/><path id="Shape" d="m17 33h8c.5522847 0 1-.4477153 1-1s-.4477153-1-1-1h-8c-.5522847 0-1 .4477153-1 1s.4477153 1 1 1z"/><path id="Shape" d="m8 11c-.55228475 0-1 .4477153-1 1s.44771525 1 1 1h26c.5522847 0 1-.4477153 1-1s-.4477153-1-1-1z"/><path id="Shape" d="m34 16h-26c-.55228475 0-1 .4477153-1 1s.44771525 1 1 1h26c.5522847 0 1-.4477153 1-1s-.4477153-1-1-1z"/><path id="Shape" d="m34 21h-26c-.55228475 0-1 .4477153-1 1s.44771525 1 1 1h26c.5522847 0 1-.4477153 1-1s-.4477153-1-1-1z"/></g></g></svg>