<svg id="Capa_1" enable-background="new 0 0 605.644 605.644" height="512" viewBox="0 0 605.644 605.644" width="512" xmlns="http://www.w3.org/2000/svg"><g><g id="Page-1_83_"><g id="_x30_84---Public-Administration"><path id="Shape_304_" d="m585.455 383.574h-129.204l-32.301-13.253v-79.521c11.961-4.347 19.994-15.629 20.188-28.354-.016-12.829-8.098-24.263-20.188-28.556v-1.726c-.092-62.931-48.326-115.326-111.035-120.614v-30.798h60.564c11.15 0 20.188-9.039 20.188-20.188v-40.376c.001-11.149-9.037-20.188-20.187-20.188h-70.658c-5.575 0-10.094 4.519-10.094 10.094v101.455c-62.709 5.287-110.943 57.683-111.035 120.614v1.807c-11.984 4.387-20.015 15.715-20.188 28.475.053 12.787 8.132 24.163 20.188 28.425v79.45l-32.301 13.253h-129.204c-11.149.001-20.188 9.04-20.188 20.189v20.188c0 11.15 9.039 20.188 20.188 20.188v131.223c0 16.724 13.558 30.282 30.282 30.282h504.703c16.724 0 30.282-13.558 30.282-30.282v-131.222c11.15 0 20.188-9.039 20.188-20.188v-20.188c.001-11.15-9.038-20.189-20.188-20.189zm-211.975-323.01h-60.564v-40.376h60.564zm-70.658 70.659c55.723.061 100.879 45.218 100.941 100.941h-201.882c.061-55.723 45.218-100.88 100.941-100.941zm-111.035 121.128h222.069c5.575 0 10.094 4.519 10.094 10.094-.138 5.517-4.577 9.956-10.094 10.094h-222.069c-5.575 0-10.094-4.519-10.094-10.094.138-5.516 4.578-9.955 10.094-10.094zm10.094 40.377h201.881v69.306l-89.615-36.793c-7.258-2.988-15.403-2.988-22.661 0l-89.605 36.793zm-161.505 282.633v-131.222h111.035v141.317h-100.941c-5.574-.001-10.094-4.52-10.094-10.095zm393.669 10.094h-60.565v-121.128c0-11.15-9.039-20.188-20.188-20.188h-100.941c-11.15 0-20.188 9.039-20.188 20.188v121.129h-60.564v-144.84l127.014-56.173c2.659-1.121 5.658-1.121 8.318 0l127.115 56.173v144.839zm-181.694-121.128h40.376v121.129h-40.376zm60.565 121.128v-121.128h40.376v121.129h-40.376zm252.351-10.094c0 5.575-4.519 10.094-10.094 10.094h-100.94v-141.316h111.035v131.222zm20.188-151.41h-139.187l-131.223-58.061c-7.815-3.335-16.657-3.317-24.458.05l-131.213 58.011h-139.186v-20.188h131.223c1.316.002 2.619-.256 3.836-.757l143.911-59.081c2.347-.969 4.982-.969 7.328 0l143.911 59.081c1.217.501 2.52.759 3.836.757h131.223v20.188z"/></g></g></g></svg>