<svg height="512" viewBox="0 0 60 60" width="512" xmlns="http://www.w3.org/2000/svg"><g id="Page-1" fill="none" fill-rule="evenodd"><g id="010---Government-Staff" fill="rgb(0,0,0)" fill-rule="nonzero" transform="translate(-1)"><path id="Shape" d="m27 31h-4c-.5522847 0-1 .4477153-1 1s.4477153 1 1 1h4c.5522847 0 1-.4477153 1-1s-.4477153-1-1-1z"/><path id="Shape" d="m26 34h-2c-.5522847 0-1 .4477153-1 1s.4477153 1 1 1h2c.5522847 0 1-.4477153 1-1s-.4477153-1-1-1z"/><path id="Shape" d="m22 23c0-.5522847-.4477153-1-1-1h-2c-.5522847 0-1 .4477153-1 1s.4477153 1 1 1c0 .5522847.4477153 1 1 1s1-.4477153 1-1c.5522847 0 1-.4477153 1-1z"/><path id="Shape" d="m31 22h-2c-.5522847 0-1 .4477153-1 1s.4477153 1 1 1c0 .5522847.4477153 1 1 1s1-.4477153 1-1c.5522847 0 1-.4477153 1-1s-.4477153-1-1-1z"/><path id="Shape" d="m24 29h2c.5522847 0 1-.4477153 1-1s-.4477153-1-1-1h-2c-.5522847 0-1 .4477153-1 1s.4477153 1 1 1z"/><path id="Shape" d="m22 21c.5522847 0 1-.4477153 1-1s-.4477153-1-1-1h-4c-.5522847 0-1 .4477153-1 1s.4477153 1 1 1z"/><path id="Shape" d="m28 21h4c.5522847 0 1-.4477153 1-1s-.4477153-1-1-1h-4c-.5522847 0-1 .4477153-1 1s.4477153 1 1 1z"/><path id="Shape" d="m61 44v-1c-.0044184-1.2906673-.8354495-2.4332344-2.062-2.835-.435-3.179-3.311-5.706-6.939-6.1v-1.4l3.752-1.589c.7994442-.3355828 1.298666-1.1406363 1.2438951-2.0059264s-.6515177-1.6009713-1.4868951-1.8330736l-3.508-.994v-.243c0-.5522847-.4477153-1-1-1s-1 .4477153-1 1v6 2.06c-3.627.4-6.5 2.925-6.937 6.1-1.2288837.4017288-2.0609061 1.5471208-2.063 2.84v.089c-2.3731512-.8396397-4.8064295-1.4985203-7.279-1.971-.6093949-1.5810453-.9363621-3.256837-.966-4.951l2.537-2.219c1.0852997-.9493709 1.7079016-2.3210636 1.708-3.763v-1.285c2.1692064-.4391259 3.7898208-2.2548712 3.9805624-4.4598441s-1.0939889-4.2720456-3.1555624-5.0771559c.8945528-1.9842435 1.297604-4.1548881 1.175-6.328 0-5.063-4.916-7.563-7.324-8.484.1423277-.10457544.2951506-.19405726.456-.267.5419607-.2465205.8868135-.79024606.8787948-1.38558588-.0080188-.59533981-.367391-1.12958-.9157948-1.36141412-10.566-4.521-15.802 2.263-16.795 3.749-1.9897445.96882981-3.4823264 2.72728351-4.115 4.848-1 3.431.385 7.2 1.289 9.121-2.1667002.6890228-3.5934854 2.7558201-3.46967524 5.0260653s1.76689484 4.169624 3.99567524 4.6189347v1.285c.0000984 1.4419364.6227003 2.8136291 1.708 3.763l2.537 2.22c-.0294029 1.6917288-.3556926 3.3651482-.964 4.944-2.075.4-8.973 1.86-11.484 4.267s-3.583 9.563-3.786 12.105c-.07234782.6827599.14535102 1.3645201.6 1.879.35440554.4023575.86382217.6341421 1.4.637h54.989c1.6568542 0 3-1.3431458 3-3v-1c-.0052514-1.2667854-.8056491-2.3937454-2-2.816v-6.368c1.1943509-.4222546 1.9947486-1.5492146 2-2.816zm-6.028-14.769-2.972 1.26v-2.148zm-3.972 6.769c2.9 0 5.322 1.721 5.88 4h-11.76c.557-2.279 2.98-4 5.88-4zm-8 7c0-.5522847.4477153-1 1-1h14c.5522847 0 1 .4477153 1 1v1c0 .5522847-.4477153 1-1 1h-14c-.5522847 0-1-.4477153-1-1zm14 10h-2v-6h2zm-8 0v-6h4v6zm-8 3v1c.0033935.3415216.0659875.6798679.185 1h-6.567l4.052-8.06c.2975008-.6541811.2211505-1.417684-.2-2l-3.17-4.44c2.0673856.4578766 4.0927962 1.0880787 6.055 1.884.3492619.6668047.9364318 1.1779459 1.645 1.432v6.368c-1.1943509.4222546-1.9947486 1.5492146-2 2.816zm-8.117-12.45.9 1.251-3.783 3.785-2.734-2.734c2.0551339-.2096637 4.0058051-1.0091021 5.617-2.302zm-6.42 6.45h-2.93l-.848-1.272 2.315-2.314 2.314 2.314zm-6.463-1.414-3.779-3.776.9-1.256c1.6112776 1.2911312 3.5609712 2.0897591 5.615 2.3zm-4.957-2.126 3.541 3.54c.7174063.7104852 1.8518674.7748214 2.645.15l.731 1.095-.846 6.768h-3.492l-4.472-8.9zm8.838 5.54h2.234l.752 6.01h-3.738zm4.155-.755.731-1.095c.349479.2812853.7843842.4350717 1.233.436.5299822.0007914 1.0383187-.2101755 1.412-.586l3.556-3.555 1.9 2.636-4.487 8.926h-3.5zm16.964-4.245h2v6h-2zm-31.894-36.312c.5116716-1.6755887 1.7314923-3.0430449 3.338-3.742.1777375-.08926924.3257293-.22822861.426-.4 1.8165748-2.87652067 5.0003102-4.59911777 8.402-4.546 1.7561048.02699764 3.4930574.36944285 5.128 1.011-.3134234.24446177-.593177.52925904-.832.847-.29125.3867799-.3778954.89035977-.232665 1.35224003s.5044757.82525737.964665.97575997c1.57.512 6.7 2.519 6.7 6.849.0396094 1.47015-.1386566 2.9380642-.529 4.356-.4113906-.9597597-1.1211392-1.7613828-2.024-2.286-.175974-.0899133-.3749433-.124759-.571-.1-5.353.668-6.856-.043-9.348-1.219-1.3646987-.671099-2.7720714-1.2516861-4.213-1.738-1.4718943-.6109204-3.1525795-.438716-4.47.458-1.1989474.9898857-2.0284348 2.3556856-2.354 3.876-.6818045-1.8196389-.8156487-3.7991426-.385-5.694zm1.894 19.497v-2.185c0-.5522847-.4477153-1-1-1-1.4608251.0122515-2.7154373-1.0355973-2.9636503-2.4752327-.248213-1.4396355.5830658-2.8471206 1.9636503-3.3247673v1.8c0 .5522847.4477153 1 1 1s1-.4477153 1-1v-3c0-1.231.37-4.686 2.019-5.872.8023258-.5030522 1.8033351-.5706373 2.666-.18 1.3637563.4635888 2.6959036 1.0154212 3.988 1.652 2.569 1.214 4.445 2.1 10.084 1.44.8571277.7360283 1.3176506 1.8326878 1.243 2.96v3c0 .5522847.4477153 1 1 1s1-.4477153 1-1v-1.8c1.3805845.4776467 2.2118633 1.8851318 1.9636503 3.3247673-.248213 1.4396354-1.5028252 2.4874842-2.9636503 2.4752327-.5522847 0-1 .4477153-1 1v2.185c.0002005.865105-.3730648 1.6881842-1.024 2.258l-5.506 4.815c-.545484.4771692-1.2452644.7407413-1.97.742h-3c-.7268019.0001925-1.4289604-.2634723-1.976-.742l-5.5-4.815c-.6509352-.5698158-1.0242005-1.392895-1.024-2.258zm5.211 8.578c.9105612.7966847 2.0791125 1.2361794 3.289 1.237h3c1.2110529.0006347 2.3810417-.4389996 3.292-1.237l1.077-.942c.1497669 1.3675691.4768461 2.7098373.973 3.993-.736.716-2.736 2.186-6.842 2.186s-6.115-1.475-6.839-2.185c.4961621-1.2835057.8232401-2.6261054.973-3.994zm-17.211 18.891c.326-4.054 1.633-9.344 3.18-10.832 1.5-1.436 5.574-2.639 8.523-3.328l-3.176 4.449c-.4266935.5948964-.4967704 1.3745491-.183 2.036l4.04 8.037-12.284.007c-.08504889-.1027916-.12150941-.2373309-.1-.369zm56-.654c0 .5522847-.4477153 1-1 1h-14c-.5522847 0-1-.4477153-1-1v-1c0-.5522847.4477153-1 1-1h14c.5522847 0 1 .4477153 1 1z"/></g></g></svg>