<svg height="512" viewBox="0 0 60 60" width="512" xmlns="http://www.w3.org/2000/svg"><g id="Page-1" fill="none" fill-rule="evenodd"><g id="018---Government-Policy" fill="rgb(0,0,0)" fill-rule="nonzero"><path id="Shape" d="m57 37h-11v-4c.5522847 0 1-.4477153 1-1s-.4477153-1-1-1h-.066c-.503641-3.3182667-2.7796705-6.0963728-5.934-7.243v-18.757c-.0033061-2.76005315-2.2399468-4.99669388-5-5h-30c-1.23973833.02058177-2.43175582.4813676-3.363 1.3-1.04134698.9485078-1.63549949 2.29143039-1.637 3.7v13c0 1.1045695.8954305 2 2 2h6v27c0 1.6568542 1.34314575 3 3 3h3v7c0 1.6568542 1.3431458 3 3 3h38c1.6568542 0 3-1.3431458 3-3v-14.181c.4176201-.1422975.7965477-.3795123 1.107-.693.5752473-.5571583.8978456-1.3251808.893-2.126 0-1.6568542-1.3431458-3-3-3zm-43 3c-.0003954-.2693445.110308-.526929.306-.712.1823963-.1865985.4330776-.2906276.694-.288h15.211l-2.556 2h-12.655c-.5522847 0-1-.4477153-1-1zm23.974-9h-3.948c.188-3.9 1.438-6 1.974-6s1.786 2.1 1.974 6zm-5.949 0h-3.934c.5369319-2.6464056 2.4934716-4.7788183 5.084-5.541-.7129814 1.7629504-1.1025359 3.6399256-1.15 5.541zm10.975 14h-14v-2h14zm-14 2h3v11h-3zm5 0h4v11h-4zm6 0h3v11h-3zm-9.11-6 2.852-2.242c.0306099-.0213236.0599901-.0443604.088-.069l2.153-1.689 5.117 4zm8.344-4-2.018-1.58c-.7142915-.5590283-1.7177085-.5590283-2.432 0l-2.018 1.58h-4.766v-4h16v4zm4.675-6h-3.934c-.0474641-1.9010744-.4370186-3.7780496-1.15-5.541 2.5905284.7621817 4.5470681 2.8945944 5.084 5.541zm-35.909-13h-6v-13c.00103875-.84535963.35739926-1.65134405.982-2.221.55088041-.50402024 1.2713436-.78213759 2.018-.779.09933333 0 .19933333.005.3.015 1.57227308.21186704 2.73456965 1.57089306 2.7 3.157zm3 30c-.5522847 0-1-.4477153-1-1v-41.828c-.0055851-1.14744585-.38665864-2.26151522-1.085-3.172h26.085c1.6568542 0 3 1.34314575 3 3v18.181c-.6598491-.1204867-1.3292408-.1810667-2-.181-5.138 0-9.379 3.507-9.934 8h-.066c-.5522847 0-1 .4477153-1 1s.4477153 1 1 1v4h-11c-1.6529917.0092882-2.9907118 1.3470083-3 3 .0052514 1.2667854.8056491 2.3937454 2 2.816v5.184zm5 9v-14h11v15h-2v-9.5c0-1.9329966-1.5670034-3.5-3.5-3.5s-3.5 1.5670034-3.5 3.5v9.5h-1c-.5522847 0-1-.4477153-1-1zm4 1v-9.5c0-.8284271.6715729-1.5 1.5-1.5s1.5.6715729 1.5 1.5v9.5zm29 0v-9.5c0-.8284271.6715729-1.5 1.5-1.5s1.5.6715729 1.5 1.5v9.5zm7-1c0 .5522847-.4477153 1-1 1h-1v-9.5c0-1.9329966-1.5670034-3.5-3.5-3.5s-3.5 1.5670034-3.5 3.5v9.5h-2v-15h11zm1.694-16.288c-.1823963.1865985-.4330776.2906276-.694.288h-12.655l-2.556-2h15.211c.5522847 0 1 .4477153 1 1 .0003954.2693445-.110308.526929-.306.712z"/><path id="Shape" d="m21.293 13.707c.1874927.1875494.4418052.2929434.707.293h.045c.2810919-.0124821.5439195-.1428068.724-.359l5-6c.3534622-.42470697.295707-1.05553776-.129-1.409s-1.0555378-.29570697-1.409.129l-4.3 5.159-.226-.226c-.3923789-.3789722-1.0160848-.3735524-1.4018186.0121814s-.3911536 1.0094397-.0121814 1.4018186z"/><path id="Shape" d="m14 19h20c.5522847 0 1-.4477153 1-1s-.4477153-1-1-1h-20c-.5522847 0-1 .4477153-1 1s.4477153 1 1 1z"/><path id="Shape" d="m14 24h12c.5522847 0 1-.4477153 1-1s-.4477153-1-1-1h-12c-.5522847 0-1 .4477153-1 1s.4477153 1 1 1z"/><path id="Shape" d="m14 29h8c.5522847 0 1-.4477153 1-1s-.4477153-1-1-1h-8c-.5522847 0-1 .4477153-1 1s.4477153 1 1 1z"/><path id="Shape" d="m14 34h7c.5522847 0 1-.4477153 1-1s-.4477153-1-1-1h-7c-.5522847 0-1 .4477153-1 1s.4477153 1 1 1z"/></g></g></svg>