<svg height="512" viewBox="0 0 60 60" width="512" xmlns="http://www.w3.org/2000/svg"><g id="Page-1" fill="none" fill-rule="evenodd"><g id="025---Research-Law" fill="rgb(0,0,0)" fill-rule="nonzero"><path id="Shape" d="m58 9c0-1.65685425-1.3431458-3-3-3h-1v-3c0-1.65685425-1.3431458-3-3-3h-18c-1.5799521.00443366-3.0641457.75803299-4 2.031-.9358543-1.27296701-2.4200479-2.02656634-4-2.031h-18c-1.65685425 0-3 1.34314575-3 3v3h-1c-1.65685425 0-3 1.34314575-3 3v30c0 1.6568542 1.34314575 3 3 3h20v1c0 1.6568542 1.3431458 3 3 3h6c1.6568542 0 3-1.3431458 3-3v-1h.292c1.984661 2.3629684 4.6944269 4.004015 7.708 4.668v10.332c0 1.6568542 1.3431458 3 3 3s3-1.3431458 3-3v-10.332c4.4010108-.9545206 8.0711996-3.9736213 9.8564905-8.1079583s1.4663658-8.8760183-.8564905-12.7340417zm-3-1c.5522847 0 1 .44771525 1 1v14.221c-.6125774-.6255895-1.282141-1.1927099-2-1.694v-13.527zm-22-6h18c.5522847 0 1 .44771525 1 1v17.37c-4.1865617-2.0062537-9.0968356-1.798525-13.0989932.5541516s-6.5718178 6.5420425-6.8550068 11.1758484c-.7442074.149267-1.4441967.467444-2.046.93v-28.03c0-1.65685425 1.3431458-3 3-3zm-.942 32.152c.0501325.6214082.1416691 1.2387792.274 1.848h-2.161c.3116274-.8732265 1.0074568-1.5546746 1.887-1.848zm-25.058-32.152h18c1.6568542 0 3 1.34314575 3 3v28.026c-.8603889-.6618067-1.9145307-1.0223232-3-1.026h-19v-29c0-.55228475.44771525-1 1-1zm-1 32h19c1.2709888.0015506 2.4036464.8022983 2.829 2h-21.829zm27 8v1c0 .5522847-.4477153 1-1 1h-6c-.5522847 0-1-.4477153-1-1v-1c0-1.1045695-.8954305-2-2-2h-20c-.55228475 0-1-.4477153-1-1v-30c0-.55228475.44771525-1 1-1h1v28c0 1.1045695.8954305 2 2 2h26.939c.3011335.7825148.6723071 1.5362415 1.109 2.252-.6432141.3466446-1.045318 1.0173293-1.048 1.748zm14 15c0 .5522847-.4477153 1-1 1s-1-.4477153-1-1v-10.051c.332.024.662.051 1 .051s.668-.027 1-.051zm-1-12c-6.627417 0-12-5.372583-12-12s5.372583-12 12-12 12 5.372583 12 12c-.0071648 6.624447-5.375553 11.9928352-12 12z"/><path id="Shape" d="m24 23h-14c-.55228475 0-1 .4477153-1 1s.44771525 1 1 1h14c.5522847 0 1-.4477153 1-1s-.4477153-1-1-1z"/><path id="Shape" d="m18 27h-8c-.55228475 0-1 .4477153-1 1s.44771525 1 1 1h8c.5522847 0 1-.4477153 1-1s-.4477153-1-1-1z"/><path id="Shape" d="m34 7h14c.5522847 0 1-.44771525 1-1s-.4477153-1-1-1h-14c-.5522847 0-1 .44771525-1 1s.4477153 1 1 1z"/><path id="Shape" d="m34 15h14c.5522847 0 1-.4477153 1-1s-.4477153-1-1-1h-14c-.5522847 0-1 .4477153-1 1s.4477153 1 1 1z"/><path id="Shape" d="m34 11h8c.5522847 0 1-.4477153 1-1 0-.55228475-.4477153-1-1-1h-8c-.5522847 0-1 .44771525-1 1 0 .5522847.4477153 1 1 1z"/><path id="Shape" d="m11 17c1.6568542 0 3-1.3431458 3-3v-1c0-1.1045695-.8954305-2-2-2v-4h2.184c.3025307.84693497.969065 1.51346929 1.816 1.816v10.184h-3c-.5522847 0-1 .4477153-1 1s.4477153 1 1 1h8c.5522847 0 1-.4477153 1-1s-.4477153-1-1-1h-3v-10.184c.846935-.30253071 1.5134693-.96906503 1.816-1.816h2.184v4c-1.1045695 0-2 .8954305-2 2v1c0 1.6568542 1.3431458 3 3 3s3-1.3431458 3-3v-1c0-1.1045695-.8954305-2-2-2v-4h1c.5522847 0 1-.44771525 1-1s-.4477153-1-1-1h-5.184c-.4174114-1.19812955-1.5472421-2.00094547-2.816-2.00094547s-2.3985886.80281592-2.816 2.00094547h-5.184c-.55228475 0-1 .44771525-1 1s.44771525 1 1 1h1v4c-1.1045695 0-2 .8954305-2 2v1c0 1.6568542 1.34314575 3 3 3zm13-3c0 .5522847-.4477153 1-1 1s-1-.4477153-1-1v-1h2zm-7-9c.5522847 0 1 .44771525 1 1s-.4477153 1-1 1-1-.44771525-1-1 .4477153-1 1-1zm-7 8h2v1c0 .5522847-.4477153 1-1 1s-1-.4477153-1-1z"/><path id="Shape" d="m46 23c-5.5228475 0-10 4.4771525-10 10s4.4771525 10 10 10 10-4.4771525 10-10c-.0060624-5.5203344-4.4796656-9.9939376-10-10zm0 18c-4.418278 0-8-3.581722-8-8s3.581722-8 8-8 8 3.581722 8 8c-.0049599 4.4162219-3.5837781 7.9950401-8 8z"/><path id="Shape" d="m47.515 29.857c.4622053-.2892402.6075113-.8954316.3266637-1.3627839-.2808477-.4673523-.8843167-.6235797-1.3566637-.3512161l-5 3c-.3132279.1806127-.5045637.516242-.5004101.8777878.0041537.3615459.2031497.6926908.5204443.8660598.3172946.1733689.7034632.1619565 1.0099658-.0298476z"/><path id="Shape" d="m49.5 32.132-7 4c-.3940621.2254282-.5868246.6880224-.4694404 1.1265697s.5154576.7429948.9694404.7414303c.1754301.0011715.3480085-.0443892.5-.132l7-4c.4650043-.2805182.6211324-.8808858.3516968-1.3523981-.2694357-.4715124-.8659405-.6418041-1.3436968-.3836019z"/></g></g></svg>