<svg height="512" viewBox="0 0 60 60" width="512" xmlns="http://www.w3.org/2000/svg"><g id="Page-1" fill="none" fill-rule="evenodd"><g id="029---Measuring-Area" fill="rgb(0,0,0)" fill-rule="nonzero" transform="translate(-1 -1)"><path id="Shape" d="m57 16h-37c-2.209139 0-4 1.790861-4 4v37c0 2.209139 1.790861 4 4 4h37c2.209139 0 4-1.790861 4-4v-37c0-2.209139-1.790861-4-4-4zm2 4v37c-.0024836.1728152-.0273575.3445796-.074.511l-19.012-19.011 19.012-19.011c.0466425.1664204.0715164.3381848.074.511zm-2-2c.1728959.0023503.3447206.0275691.511.075l-19.011 19.011-19.011-19.011c.1662794-.0474309.3381041-.0726497.511-.075zm-38.926 39.511c-.0466425-.1664204-.0715164-.3381848-.074-.511v-37c.0024836-.1728152.0273575-.3445796.074-.511l19.012 19.011zm1.926 1.489c-.1728959-.0023503-.3447206-.0275691-.511-.075l19.011-19.011 19.011 19.011c-.1662794.0474309-.3381041.0726497-.511.075z"/><path id="Shape" d="m2 18h10c.5522847 0 1-.4477153 1-1s-.4477153-1-1-1h-10c-.55228475 0-1 .4477153-1 1s.44771525 1 1 1z"/><path id="Shape" d="m2 61h10c.5522847 0 1-.4477153 1-1s-.4477153-1-1-1h-10c-.55228475 0-1 .4477153-1 1s.44771525 1 1 1z"/><path id="Shape" d="m11.231 27.64c.3534622.424707.984293.4824622 1.409.129.424707-.3534623.4824622-.984293.129-1.409l-5-6c-.19643364-.2175945-.47585575-.3417846-.769-.3417846s-.57256636.1241901-.769.3417846l-5 6c-.35346224.424707-.29570697 1.0555378.129 1.409s1.05553776.295707 1.409-.129l3.231-3.878v29.476l-3.231-3.878c-.35346225-.4247069-.98429301-.4824622-1.40899998-.129-.42470696.3534623-.48246223.984293-.12900002 1.409l5 6c.1899884.2285512.47179426.3607512.769.3607512s.5790116-.1322.769-.3607512l5-6c.22865-.2747372.2933607-.6505882.1697563-.9859735-.1236045-.3353853-.4167456-.579352-.769-.64-.3522545-.0606481-.7101063.0712363-.9387563.3459735l-3.231 3.878v-29.476z"/><path id="Shape" d="m60 1c-.5522847 0-1 .44771525-1 1v10c0 .5522847.4477153 1 1 1s1-.4477153 1-1v-10c0-.55228475-.4477153-1-1-1z"/><path id="Shape" d="m17 1c-.5522847 0-1 .44771525-1 1v10c0 .5522847.4477153 1 1 1s1-.4477153 1-1v-10c0-.55228475-.4477153-1-1-1z"/><path id="Shape" d="m27.769 1.36c-.1698334-.20421215-.413931-.33247071-.6784483-.35648362-.2645172-.02401291-.5277208.05819277-.7315517.22848362l-6 5c-.2278341.18999517-.3595502.47134105-.3595502.768s.1317161.57800483.3595502.768l6 5c.27438.2290073.6500914.2942387.9856075.1711223s.5798639-.4158764.641-.768c.0611361-.3521237-.0702275-.7101151-.3446075-.9391223l-3.879-3.232h29.476l-3.879 3.232c-.27438.2290072-.4057436.5869986-.3446075.9391223.0611361.3521236.3054839.6448836.641.768s.7112275.0578849.9856075-.1711223l6-5c.2278341-.18999517.3595502-.47134105.3595502-.768s-.1317161-.57800483-.3595502-.768l-6-5c-.27438-.22900725-.6500914-.2942387-.9856075-.1711223-.3355161.12311641-.5798639.41587636-.641.76800001s.0702275.71011505.3446075.93912229l3.879 3.232h-29.476l3.879-3.232c.4240023-.35354221.4812979-.98379413.128-1.408z"/></g></g></svg>