<?xml version="1.0" encoding="iso-8859-1"?>
<!-- Generator: Adobe Illustrator 19.0.0, SVG Export Plug-In . SVG Version: 6.00 Build 0)  -->
<svg version="1.1" id="Layer_1" xmlns="http://www.w3.org/2000/svg" xmlns:xlink="http://www.w3.org/1999/xlink" x="0px" y="0px"
	 viewBox="0 0 512.069 512.069" style="enable-background:new 0 0 512.069 512.069;" xml:space="preserve">
<g>
	<g>
		<path d="M509.475,2.514c-2.56-2.56-6.827-2.56-10.24-0.853l-243.2,158.72L12.835,1.661c-2.56-2.56-6.827-1.707-10.24,0.853
			c-2.56,2.56-3.413,5.973-1.707,9.387l247.467,494.933c1.707,3.413,4.267,5.12,7.68,5.12s5.973-1.707,7.68-5.12L511.181,11.901
			C512.888,8.487,512.035,5.074,509.475,2.514z M256.035,484.647L30.755,33.234l220.16,145.067c2.56,1.707,6.827,1.707,9.387,0
			L481.315,33.234L256.035,484.647z"/>
	</g>
</g>
<g>
</g>
<g>
</g>
<g>
</g>
<g>
</g>
<g>
</g>
<g>
</g>
<g>
</g>
<g>
</g>
<g>
</g>
<g>
</g>
<g>
</g>
<g>
</g>
<g>
</g>
<g>
</g>
<g>
</g>
</svg>
