<svg id="Capa_1" enable-background="new 0 0 512 512" height="512" viewBox="0 0 512 512" width="512" xmlns="http://www.w3.org/2000/svg"><g><g id="Page-1_26_"><g id="_x30_27---Pinning-Location"><path id="Shape_97_" d="m281.6 290.705v-43.238h59.733c12.522.031 23.219-9.023 25.256-21.378s-5.186-24.364-17.055-28.355c-1.559-21.601-10.596-41.984-25.557-57.643l-7.493-88.891h7.782c14.138 0 25.6-11.462 25.6-25.6s-11.461-25.6-25.599-25.6h-136.534c-14.138 0-25.6 11.462-25.6 25.6s11.462 25.6 25.6 25.6h7.782l-7.492 88.892c-14.961 15.659-23.998 36.042-25.557 57.643-11.869 3.99-19.092 15.999-17.055 28.355 2.037 12.355 12.734 21.409 25.256 21.378h59.733v43.238c-131.917 5.46-230.4 52.274-230.4 110.361 0 62.208 112.452 110.933 256 110.933s256-48.725 256-110.933c0-58.087-98.483-104.901-230.4-110.362zm-46.199 105.361 8.533 8.533c6.665 6.663 17.468 6.663 24.132 0l8.533-8.533c3.212-3.192 5.013-7.538 5.001-12.066v-41.916c87.108 4.173 145.067 28.911 145.067 50.449 0 24.175-72.986 51.2-170.667 51.2s-170.667-27.025-170.667-51.2c0-21.538 57.958-46.276 145.067-50.449v41.916c-.012 4.529 1.788 8.874 5.001 12.066zm-56.201-370.466c0-4.713 3.821-8.533 8.533-8.533h136.533c4.713 0 8.533 3.821 8.533 8.533s-3.82 8.533-8.533 8.533h-136.533c-4.712 0-8.533-3.82-8.533-8.533zm23.04 124.356c1.474-1.421 2.383-3.328 2.56-5.367l7.842-93.389h86.716l7.842 93.389c.177 2.04 1.086 3.946 2.56 5.367 12.645 12.364 20.61 28.731 22.537 46.31h-152.594c1.927-17.579 9.892-33.946 22.537-46.31zm-40.107 71.911c0-4.713 3.821-8.533 8.533-8.533h170.667c4.713 0 8.533 3.821 8.533 8.533 0 4.713-3.821 8.533-8.533 8.533h-170.666c-4.713 0-8.534-3.821-8.534-8.533zm102.4 25.6v136.533l-8.533 8.533-8.533-8.533v-136.533zm-8.533 247.466c-129.519 0-238.933-42.991-238.933-93.867 0-47.053 94.916-88.166 213.333-93.286v17.16c-79.625 3.738-162.133 25.993-162.133 67.593 0 44.373 96.725 68.267 187.733 68.267s187.733-23.893 187.733-68.267c0-41.6-82.509-63.855-162.133-67.593v-17.16c118.417 5.12 213.333 46.234 213.333 93.286 0 50.876-109.414 93.867-238.933 93.867z"/></g></g></g></svg>