<svg version="1.2" xmlns="http://www.w3.org/2000/svg" viewBox="0 0 116 72" width="116" height="72">
	<title>logo-svg</title>
	<style>
		.s0 { fill: #1b5166 } 
	</style>
	<path id="Layer" class="s0" d="m65.3 11.8c0-4.3 3.5-7.8 7.8-7.8 4.3 0 7.7 3.5 7.7 7.8 0 4.3-3.4 7.8-7.7 7.8-4.3 0-7.8-3.5-7.8-7.8zm36.4 49.5c1.6 4-0.3 8.5-4.3 10.1-4 1.6-8.5-0.3-10.1-4.2l-14.1-34.6c-1.6-4 0.3-8.5 4.3-10.1 4-1.6 8.5 0.3 10.1 4.3zm-31.9-21.9c1.7 3.9-0.2 8.5-4.2 10.1-4 1.6-8.5-0.3-10.2-4.3l-14-34.6c-1.6-3.9 0.3-8.5 4.3-10.1 3.9-1.6 8.5 0.3 10.1 4.3zm-45.8-0.2c1.6 4-0.4 8.6-4.3 10.2-4 1.6-8.5-0.3-10.1-4.3l-9-22.1c-1.6-4 0.3-8.6 4.2-10.2 4-1.6 8.6 0.4 10.2 4.3zm9.1 5.9l-9.1-22.1c-1.6-4 0.4-8.6 4.3-10.2 4-1.6 8.5 0.3 10.1 4.3l9.1 22.1c1.6 4-0.4 8.5-4.3 10.1-4 1.6-8.5-0.3-10.1-4.2zm23.3 16.1c1.6 3.9-0.3 8.5-4.2 10.1-4 1.6-8.6-0.3-10.2-4.3l-2.4-5.8c-1.6-4 0.3-8.5 4.3-10.1 4-1.7 8.5 0.3 10.1 4.3zm54.8-11.8c-3.9 1.6-8.5-0.3-10.1-4.3l-4.2-10.4c-1.6-4 0.3-8.5 4.3-10.1 4-1.7 8.5 0.2 10.1 4.2l4.2 10.4c1.6 4-0.3 8.6-4.3 10.2z"/>
</svg>