<svg version="1.2" xmlns="http://www.w3.org/2000/svg" viewBox="0 0 880 198" width="880" height="198">
	<title>16292728_sale_02-ai</title>
	<defs>
		<linearGradient id="g1" x1="51.3" y1="-12" x2="91.7" y2="-12" gradientUnits="userSpaceOnUse">
			<stop offset="0" stop-color="#e91d24"/>
			<stop offset=".1" stop-color="#d72027"/>
			<stop offset="1" stop-color="#6b0c0e"/>
		</linearGradient>
		<linearGradient id="g2" x1="827.2" y1="-12" x2="786.9" y2="-12" gradientUnits="userSpaceOnUse">
			<stop offset="0" stop-color="#e91d24"/>
			<stop offset=".1" stop-color="#d72027"/>
			<stop offset="1" stop-color="#6b0c0e"/>
		</linearGradient>
		<linearGradient id="g3" x1="-11.4" y1="43.4" x2="-11.4" y2="20.6" gradientUnits="userSpaceOnUse">
			<stop offset="0" stop-color="#fbe009"/>
			<stop offset="1" stop-color="#fbb013"/>
		</linearGradient>
		<linearGradient id="g4" x1="839.7" y1="19.4" x2="839.7" y2="185.8" gradientUnits="userSpaceOnUse">
			<stop offset="0" stop-color="#e91d24"/>
			<stop offset=".1" stop-color="#d72027"/>
			<stop offset="1" stop-color="#6b0c0e"/>
		</linearGradient>
	</defs>
	<style>
		tspan { white-space:pre } 
		.s0 { fill: url(#g1) } 
		.s1 { fill: url(#g2) } 
		.s2 { fill: url(#g3) } 
		.s3 { fill: url(#g4) } 
	</style>
	<g id="Layer 1">
		<g id="&lt;Group&gt;">
			<g id="&lt;Group&gt;">
				<path id="&lt;Path&gt;" class="s0" d="m36.6 25.4c0-11.8 9.6-21.4 21.4-21.4h34.6v21.4h-56z"/>
				<path id="&lt;Path&gt;" class="s1" d="m841.9 25.4h-56v-21.4h34.6c11.8 0 21.4 9.6 21.4 21.4z"/>
				<path id="&lt;Path&gt;" class="s2" d="m862.4 49.3h-841.7c-8.9 0-16.1-7.2-16.1-16.1 0-9 7.2-16.2 16.1-16.2h841.7c8.9 0 16.2 7.2 16.2 16.2 0 8.9-7.3 16.1-16.2 16.1z"/>
				<g id="&lt;Group&gt;">
					<path id="&lt;Path&gt;" class="s3" d="m823.7 4c-35.3 0-42.9 59.4-44.4 91l-0.4 19.1c-3.6 45.1-40.7 80.6-86.1 80.6h-21.7-459.1-21.6c-45.4 0-82.5-35.5-86.2-80.6l-0.3-19.1c-1.6-31.6-9.2-91-44.5-91h59.1 93.5 459.1 93.5z"/>
				</g>
			</g>
			<text id="" style="transform: matrix(8,0,0,8,433.469,131.719)" >
			</text>
		</g>
	</g>
</svg>