<?xml version="1.0" encoding="UTF-8"?>
<svg width="106px" height="99px" viewBox="0 0 106 99" version="1.1" xmlns="http://www.w3.org/2000/svg" xmlns:xlink="http://www.w3.org/1999/xlink">
    <title>00EAB4FA-FC03-4868-B8CA-15173C91BE67</title>
    <defs>
        <polygon id="path-1" points="0 0 3.85387872 0 3.85387872 6.83069495 0 6.83069495"></polygon>
    </defs>
    <g id="Page-1" stroke="none" stroke-width="1" fill="none" fill-rule="evenodd">
        <g id="Aucation---Details---Ended" transform="translate(-502.000000, -525.000000)">
            <g id="Group-26" transform="translate(166.000000, 309.000000)">
                <g id="Group-25" transform="translate(0.000000, 109.000000)">
                    <g id="Group-22" transform="translate(26.000000, 31.000000)">
                        <g id="Group-18" transform="translate(259.000000, 76.000000)">
                            <g id="Group-115" transform="translate(51.000000, 0.000000)">
                                <path d="M105.623176,56.6414175 L102.173301,57.8682103 C101.997616,57.9307027 101.863956,58.0759327 101.815748,58.2566618 L100.871621,61.8045334 C100.750469,62.2596952 100.161435,62.3771585 99.8748594,62.0032581 L97.6409997,59.0893091 C97.5272266,58.9409158 97.3479585,58.8579674 97.1617332,58.8677384 L93.5050425,59.0582386 C93.0359657,59.082631 92.7417298,58.5568928 93.0072237,58.1685116 L95.0764322,55.1407545 C95.1817724,54.9865267 95.2047519,54.7900515 95.1377108,54.6152975 L93.8219767,51.1852408 C93.6532496,50.7451925 94.0604153,50.3028245 94.5110101,50.4365261 L98.0237102,51.4792858 C98.2026972,51.532429 98.3960904,51.4938369 98.5409947,51.376233 L101.384478,49.0656281 C101.749199,48.7693336 102.295085,49.0216935 102.308085,49.4928123 L102.409842,53.1650362 C102.415112,53.3520216 102.511739,53.524737 102.668238,53.6266651 L105.741376,55.6288847 C106.135541,55.8856733 106.065759,56.4840968 105.623176,56.6414175" id="Fill-1" fill="#008FBE"></path>
                                <path d="M72.0878815,21.3822688 C72.0073479,21.7600354 71.9344038,22.150877 71.7379889,22.4673463 C71.400113,22.8757617 71.0810705,23.2971817 70.7779099,23.7294975 C70.9863416,23.7144543 71.1961085,23.7048941 71.4079837,23.7048941 C73.4927226,23.7048941 75.4324869,24.4391983 76.8700052,25.7724884 C78.1549594,26.964274 78.862545,28.4917898 78.862545,30.0735736 C78.862545,31.6554276 78.1549594,33.1829434 76.8700052,34.3747291 C75.4324869,35.7080191 73.4927226,36.4423233 71.4079837,36.4423233 C69.3287261,36.4423233 67.393881,35.7116041 65.9576275,34.3849922 C65.8529198,34.6946428 65.7487742,35.0023251 65.6446286,35.3115539 C64.9416107,35.6679508 64.4477273,36.5072058 64.4477273,37.4860672 C64.4477273,38.7880055 65.3212291,39.8434887 66.3988057,39.8434887 C67.2460954,39.8434887 67.9653465,39.1894617 68.2347055,38.2773105 C69.2261265,38.6078388 70.2937945,38.7901144 71.4079837,38.7901144 C76.5981866,38.7901144 80.8056825,34.8876032 80.8056825,30.0735736 C80.8056825,25.4719059 76.9603069,21.7057675 72.0878815,21.3822688" id="Fill-3" fill="#E0973F"></path>
                                <path d="M29.9430568,21.3822688 C30.0235201,21.7600354 30.0965345,22.150877 30.2929494,22.4673463 C30.6308955,22.8757617 30.949938,23.2971817 31.2530986,23.7294975 C31.0445966,23.7144543 30.8347594,23.7048941 30.6229546,23.7048941 C28.5382157,23.7048941 26.5984514,24.4391983 25.1610033,25.7724884 C23.8760491,26.964274 23.1683229,28.4917898 23.1683229,30.0735736 C23.1683229,31.6554276 23.8760491,33.1829434 25.1610033,34.3747291 C26.5984514,35.7080191 28.5382157,36.4423233 30.6229546,36.4423233 C32.7022121,36.4423233 34.636987,35.7116041 36.073381,34.3849922 C36.1780185,34.6946428 36.2822343,35.0023251 36.3863097,35.3115539 C37.0893275,35.6679508 37.5832109,36.5072058 37.5832109,37.4860672 C37.5832109,38.7880055 36.7097091,39.8434887 35.6322028,39.8434887 C34.7847726,39.8434887 34.065662,39.1894617 33.7962327,38.2773105 C32.8048117,38.6078388 31.7372843,38.7901144 30.6229546,38.7901144 C25.4328219,38.7901144 21.225326,34.8876032 21.225326,30.0735736 C21.225326,25.4719059 25.0707016,21.7057675 29.9430568,21.3822688" id="Fill-5" fill="#E0973F"></path>
                                <path d="M73.4398908,20.3897279 L73.4398908,22.7962156 C73.4398908,33.671875 64.6241283,42.4903439 53.7518066,42.4903439 C48.7440341,42.4239149 45.3083541,42.9416394 40.5538479,40.8360155 C33.7032185,37.8311044 28.7714119,30.9453331 28.7714119,22.7962156 L28.7714119,20.3897279 L73.4398908,20.3897279 Z" id="Fill-7" fill="#F7CC7F"></path>
                                <path d="M40.5538339,40.8360365 C40.5588233,40.8382157 40.5638127,40.8403948 40.5688021,40.8426443 L47.6458533,20.389749 L40.2787124,20.389749 L34.6060807,36.7863271 C36.3194232,38.4837466 38.3360669,39.8632206 40.5538339,40.8360365" id="Fill-9" fill="#FAE0B2"></path>
                                <path d="M45.15813,42.2160588 L52.6259731,20.389735 L48.9251505,20.389735 L41.7627168,41.3266833 C42.9502014,41.7639901 44.0648122,42.0414454 45.15813,42.2160588" id="Fill-11" fill="#FAE0B2"></path>
                                <path d="M33.8881999,36.0369446 L39.4731301,20.3897139 L37.7137583,20.3897139 L32.6607999,34.5471774 C33.0461104,35.0642692 33.4559465,35.5613973 33.8881999,36.0369446" id="Fill-13" fill="#FAE0B2"></path>
                                <path d="M71.4896628,19.0256978 L30.8337405,19.0256978 C29.3499118,19.0256978 28.1404315,19.851667 28.0551193,20.8925288 L74.2683542,20.8925288 C74.1829717,19.851667 72.9734914,19.0256978 71.4896628,19.0256978" id="Fill-15" fill="#F7CC7F"></path>
                                <polygon id="Fill-17" fill="#F7CC7F" points="43.5571059 41.9141126 45.8573742 53.7265266 55.9162781 53.7265266 58.7662973 41.9141126"></polygon>
                                <polygon id="Fill-19" fill="#B75742" points="58.7667611 41.9149351 58.123757 44.5804607 44.0772436 44.5804607 43.5574292 41.9149351"></polygon>
                                <polygon id="Fill-21" fill="#F7CC7F" points="58.7667611 68.3395314 43.5574292 68.3395314 44.6976899 62.4763451 45.8564325 56.5268363 55.9171635 56.5268363 57.3532764 62.4763451"></polygon>
                                <polygon id="Fill-23" fill="#B75742" points="58.7667611 68.3395314 43.5574292 68.3395314 44.6976899 62.4763451 57.3532764 62.4763451"></polygon>
                                <path d="M57.6809485,53.7264984 L44.09276,53.7264984 C43.4933255,53.7264984 43.0073831,54.2125901 43.0073831,54.8121383 L43.0073831,55.4409996 C43.0073831,56.0405478 43.4933255,56.5267097 44.09276,56.5267097 L57.6809485,56.5267097 C58.2803127,56.5267097 58.7662551,56.0405478 58.7662551,55.4409996 L58.7662551,54.8121383 C58.7662551,54.2125901 58.2803127,53.7264984 57.6809485,53.7264984" id="Fill-25" fill="#FAE0B2"></path>
                                <path d="M59.8876403,67.5399932 L41.9230181,67.5399932 L41.9230181,64.3123165 C41.9230181,63.9646362 42.2048155,63.6828225 42.5523891,63.6828225 L59.2583395,63.6828225 C59.6058429,63.6828225 59.8876403,63.9646362 59.8876403,64.3123165 L59.8876403,67.5399932 Z" id="Fill-27" fill="#F7CC7F"></path>
                                <path d="M65.8245995,69.8459375 L65.8245995,71.0193761 L35.9860448,71.0193761 L35.9860448,69.8459375 C35.9860448,68.4937381 36.8110578,67.3962183 37.8276368,67.3962183 L63.9829372,67.3962183 C64.9995865,67.3962183 65.8245995,68.4937381 65.8245995,69.8459375" id="Fill-29" fill="#F7CC7F"></path>
                                <polygon id="Fill-31" fill="#FAE0B2" points="43.0111146 67.3962464 42.0671283 71.0194043 40.8218787 71.0194043 41.765865 67.3962464"></polygon>
                                <polygon id="Fill-33" fill="#FAE0B2" points="41.2281941 67.3962464 40.2842078 71.0194043 39.0374122 71.0194043 39.9829446 67.3962464"></polygon>
                                <polygon id="Fill-35" fill="#FAE0B2" points="44.596285 67.3962464 43.6522987 71.0194043 42.4055031 71.0194043 43.3510354 67.3962464"></polygon>
                                <path d="M76.9344251,97.8265403 L76.9344251,98.9999789 L26.9340714,98.9999789 L26.9340714,97.8265403 C26.9340714,96.4742706 28.3165655,95.3768211 30.0200697,95.3768211 L73.8483566,95.3768211 C75.551931,95.3768211 76.9344251,96.4742706 76.9344251,97.8265403" id="Fill-37" fill="#F7CC7F"></path>
                                <polygon id="Fill-39" fill="#FAE0B2" points="38.7059945 95.3768422 37.1242043 99 35.0374275 99 36.6193583 95.3768422"></polygon>
                                <polygon id="Fill-41" fill="#FAE0B2" points="35.7184005 95.3768422 34.1365401 99 32.0472334 99 33.631694 95.3768422"></polygon>
                                <polygon id="Fill-43" fill="#FAE0B2" points="41.3622552 95.3768422 39.780465 99 37.6911583 99 39.2756189 95.3768422"></polygon>
                                <path d="M63.8986018,39.6823439 L63.8986018,40.5679234 C63.8986018,42.1014846 62.6572876,43.3432502 61.126516,43.3432502 L41.0967613,43.3432502 C39.5636004,43.3432502 38.3222862,42.1014846 38.3222862,40.5679234 L38.3222862,39.6823439 L63.8986018,39.6823439 Z" id="Fill-45" fill="#F7CC7F"></path>
                                <polygon id="Fill-47" fill="#008FBE" points="69.996825 95.3768422 32.3701901 95.3768422 32.8290069 71.0200299 69.4921897 71.0200299"></polygon>
                                <polygon id="Fill-49" fill="#00AAD8" points="61.0490112 95.3768422 41.3180601 95.3768422 41.5586069 71.0200299 60.7843605 71.0200299"></polygon>
                                <polygon id="Fill-54" fill="#B75742" points="57.2357788 94.644443 54.2522396 89.771295 49.8673027 93.4338885 54.3790133 65.9537176 61.7474894 67.1641315"></polygon>
                                <polygon id="Fill-56" fill="#B75742" points="70.8657731 93.4201809 66.4724033 89.7676397 63.5001079 94.6476766 58.9249401 67.1779094 66.2906053 65.950484"></polygon>
                                <path d="M76.9344251,72.2790178 C76.9344251,73.8666361 75.5349951,75.2135634 75.0699942,76.6461103 C74.587987,78.130746 74.9121595,80.039965 74.0130781,81.2756852 C73.1050016,82.5238477 71.1835085,82.801303 69.9357993,83.709588 C68.7003881,84.6089454 67.8477576,86.3563447 66.3635775,86.8384296 C64.9315405,87.3035029 63.2215009,86.406395 61.6344401,86.406395 C60.0474497,86.406395 58.3373398,87.3035029 56.9053028,86.8383593 C55.421193,86.3563447 54.5684219,84.6088751 53.3330809,83.7095177 C52.0853718,82.8012327 50.1638787,82.5237071 49.2558022,81.2755446 C48.356791,80.0398947 48.6808932,78.1306054 48.1990266,76.6459697 C47.7340257,75.2135634 46.3345957,73.8665658 46.3345957,72.2790178 C46.3345957,70.6915402 47.7340257,69.3444723 48.1990266,67.9119957 C48.6808932,66.42736 48.3568613,64.518141 49.2559427,63.2823505 C50.1640192,62.0342583 52.0855124,61.7568029 53.3332215,60.848518 C54.5685625,59.9491606 55.4212633,58.2016909 56.905373,57.7196764 C58.33741,57.2545327 60.0474497,58.1516407 61.6344401,58.1516407 C63.2215009,58.1516407 64.9316108,57.254603 66.3636478,57.7197467 C67.8478278,58.2016909 68.7005286,59.9492309 69.9358696,60.8485883 C71.1835787,61.7569435 73.1051422,62.0343989 74.0132186,63.2824911 C74.9122298,64.5182113 74.5881276,66.4275006 75.0699942,67.912066 C75.5349951,69.3445426 76.9344251,70.6915402 76.9344251,72.2790178" id="Fill-58" fill="#F47458"></path>
                                <path d="M65.4472158,85.8615857 C64.9660519,85.8615857 64.4063923,85.738569 63.8139853,85.6083822 C63.1144811,85.4547168 62.3910136,85.2957792 61.6345174,85.2957792 C60.8780213,85.2957792 60.1544835,85.4547168 59.4548388,85.6083822 C58.8623614,85.738569 58.3027019,85.8615857 57.821538,85.8615857 C57.6003867,85.8615857 57.4129668,85.8355764 57.2481048,85.7820114 C56.6363724,85.5833571 56.0876053,84.9599788 55.5065825,84.2999064 C55.046571,83.7772612 54.5708182,83.2368313 53.9864926,82.811545 C53.3941558,82.380354 52.7277505,82.0903861 52.0832003,81.8100486 C51.2816588,81.4613139 50.5245302,81.1319806 50.1536257,80.6220589 C49.7889053,80.1207834 49.7086528,79.3024061 49.6236217,78.4360875 C49.5546832,77.7332755 49.4833554,77.0064929 49.2551065,76.3029781 C49.0356418,75.6273704 48.6732404,75.0156611 48.3225748,74.4241266 C47.8712772,73.6626182 47.4448566,72.9432166 47.4448566,72.2789967 C47.4448566,71.6147769 47.8711367,70.8955862 48.3225748,70.1340075 C48.6730999,69.5424729 49.0356418,68.9307637 49.2549659,68.2550154 C49.4834959,67.5515005 49.5548237,66.8246476 49.6237622,66.1216951 C49.7087231,65.2553765 49.7889756,64.4370695 50.153696,63.9359346 C50.5246707,63.4260832 51.2816588,63.0966796 52.0832003,62.7479449 C52.7277505,62.4676074 53.3942963,62.1776395 53.9866332,61.7465187 C54.5709588,61.3212325 55.0467116,60.7807323 55.5068636,60.2581574 C56.0878161,59.5981553 56.6365832,58.974777 57.2483859,58.775982 C57.4130371,58.7226279 57.6005273,58.696689 57.8216785,58.696689 C58.3028424,58.696689 58.862502,58.8195651 59.4549793,58.9497519 C60.1546241,59.1034173 60.8780213,59.2623549 61.6345174,59.2623549 C62.3910136,59.2623549 63.1144811,59.1034173 63.8141961,58.9497519 C64.4065329,58.8195651 64.9661925,58.696689 65.4473563,58.696689 C65.6686481,58.696689 65.856068,58.7226279 66.0207193,58.775982 C66.6325219,58.9748473 67.1813593,59.5982256 67.7623821,60.2582277 C68.2225341,60.7808026 68.6983572,61.3212325 69.2824017,61.7465187 C69.8747385,62.1776395 70.5412844,62.4676074 71.1857642,62.7480152 C71.9874464,63.0966796 72.7443641,63.4261535 73.1152686,63.9360049 C73.4801295,64.4372803 73.5603118,65.2555171 73.6452727,66.121906 C73.7142814,66.8247882 73.7856092,67.5515005 74.0137878,68.2550154 C74.2332525,68.9307637 74.5958647,69.5425432 74.9464601,70.1340778 C75.3978279,70.8956565 75.824108,71.6148472 75.824108,72.2789967 C75.824108,72.9432869 75.3976873,73.6626182 74.9463898,74.4242672 C74.5957241,75.0156611 74.2332525,75.6273704 74.0139986,76.3029781 C73.7856092,77.0064929 73.7142814,77.7332755 73.6452727,78.4360875 C73.5603118,79.3024061 73.4801295,80.1207834 73.1152686,80.6220589 C72.7442236,81.1321212 71.9871653,81.4613842 71.1857642,81.8100486 C70.5412141,82.0903861 69.8747385,82.380354 69.2823314,82.811545 C68.6981464,83.2369719 68.2223936,83.7772612 67.7623821,84.2999064 C67.1813593,84.9599788 66.6325219,85.5833571 66.0207193,85.7820114 C65.856068,85.8355764 65.6684373,85.8615857 65.4472158,85.8615857" id="Fill-60" fill="#F7CC7F"></path>
                                <path d="M72.7795642,72.2790178 C72.7795642,78.4361788 67.7897115,83.4275634 61.6344401,83.4275634 C55.479239,83.4275634 50.4894566,78.4361788 50.4894566,72.2790178 C50.4894566,66.1218568 55.479239,61.1305425 61.6344401,61.1305425 C67.7897115,61.1305425 72.7795642,66.1218568 72.7795642,72.2790178" id="Fill-62" fill="#F47458"></path>
                                <path d="M61.6345315,82.8721817 C55.7952808,82.8721817 51.0446397,78.1200119 51.0446397,72.2790389 C51.0446397,66.4379254 55.7952808,61.6858961 61.6345315,61.6858961 C67.4738524,61.6858961 72.2244232,66.4379254 72.2244232,72.2790389 C72.2244232,78.1200119 67.4738524,82.8721817 61.6345315,82.8721817" id="Fill-64" fill="#FFFFFF"></path>
                                <path d="M71.2353283,72.2790178 C71.2353283,77.5830054 66.9368983,81.8828253 61.6344682,81.8828253 C56.3321085,81.8828253 52.0337488,77.5830054 52.0337488,72.2790178 C52.0337488,66.9750303 56.3321085,62.6752807 61.6344682,62.6752807 C66.9368983,62.6752807 71.2353283,66.9750303 71.2353283,72.2790178" id="Fill-66" fill="#F7CC7F"></path>
                                <path d="M59.1862739,72.8271732 L59.4474811,70.8335999 L58.017974,70.8335999 L57.7567667,72.8271732 L59.1862739,72.8271732 Z M56.4510818,76.3332894 L56.8083532,73.6383804 L55.6814445,73.6383804 L55.6814445,72.8271732 L56.9321754,72.8271732 L57.1933124,70.8335999 L56.0110983,70.8335999 L56.0110983,70.022463 L57.3169941,70.022463 L57.6743357,67.3962324 L58.4715906,67.3962324 L58.1280226,70.022463 L59.5574594,70.022463 L59.9148011,67.3962324 L60.725689,67.3962324 L60.3821913,70.022463 L61.5093108,70.022463 L61.5093108,70.8335999 L60.2583691,70.8335999 L60.011076,72.8271732 L61.1930793,72.8271732 L61.1930793,73.6383804 L59.8873944,73.6383804 L59.5298419,76.3332894 L58.7051803,76.3332894 L59.0624517,73.6383804 L57.6330148,73.6383804 L57.2757434,76.3332894 L56.4510818,76.3332894 Z" id="Fill-68" fill="#FFFFFF"></path>
                                <polygon id="Fill-70" fill="#FFFFFF" points="65.248271 68.523712 65.2208643 68.523712 63.6676755 69.3624046 63.4339452 68.4411151 65.3857263 67.3962464 66.4165709 67.3962464 66.4165709 76.3333034 65.248271 76.3333034"></polygon>
                                <path d="M77.8171819,46.5196536 C77.8171819,46.5196536 75.7152963,46.8439959 74.1629507,48.39253 C72.6105349,49.941064 71.683344,52.4284615 71.683344,52.4284615 L74.8621738,53.3557261 C74.8621738,53.3557261 73.591696,50.390321 77.8171819,46.5196536" id="Fill-72" fill="#FAE0B2"></path>
                                <path d="M78.3993994,48.0451449 L78.1717126,46.2538813 L76.5675051,45.426225 C76.3847936,45.3318888 76.3893614,45.0689846 76.5753758,44.9813264 L78.2079036,44.2111013 L78.499188,42.4291167 C78.5324274,42.2261743 78.7837964,42.1493416 78.9246951,42.2992111 L80.1614415,43.6142946 L81.9456199,43.3407758 C82.1488514,43.3095647 82.2995884,43.5250197 82.2006431,43.7053973 L81.3324821,45.288376 L82.1439322,46.9012303 C82.2363421,47.0849118 82.0780858,47.2948837 81.8761192,47.2565025 L80.1026927,46.9197179 L78.8199873,48.190164 C78.6739586,48.3348316 78.4254006,48.2490714 78.3993994,48.0451449" id="Fill-74" fill="#F7CC7F"></path>
                                <path d="M22.5146372,56.0549583 C22.5146372,56.0549583 24.6164526,56.3793006 26.1688684,57.9278347 C27.7212139,59.4763688 28.6484751,61.9637662 28.6484751,61.9637662 L25.469575,62.8910309 C25.469575,62.8910309 26.7400528,59.9256257 22.5146372,56.0549583" id="Fill-76" fill="#FAE0B2"></path>
                                <path d="M21.9323073,57.5804496 L22.1601346,55.789186 L23.7642718,54.9615298 C23.9469834,54.8671935 23.9423453,54.6043596 23.7564012,54.5166311 L22.1238734,53.746406 L21.832589,51.9644214 C21.7994198,51.7615493 21.5479806,51.6847166 21.4070819,51.8345158 L20.1703354,53.1496697 L18.386157,52.8760103 C18.1829256,52.8448695 18.0321885,53.0603244 18.1310636,53.240702 L18.9992949,54.8236808 L18.1878447,56.436535 C18.0953646,56.6202165 18.2536912,56.8301884 18.4556577,56.7918072 L20.2290139,56.4550226 L21.5117194,57.7254687 C21.6578183,57.8701363 21.9063763,57.7844464 21.9323073,57.5804496" id="Fill-78" fill="#F7CC7F"></path>
                                <path d="M92.0359291,48.0844118 L92.5275637,47.2538031 L92.1221549,46.377854 C92.0759851,46.2781051 92.1642488,46.1685851 92.2714864,46.1926963 L93.2131537,46.4037227 L93.9207394,45.7473759 C94.0014135,45.6725818 94.1326848,45.7227023 94.1428745,45.8322223 L94.2332464,46.7932287 L95.0759683,47.2635742 C95.1719622,47.3171392 95.1648645,47.4575188 95.0639515,47.5011721 L94.1781518,47.8840704 L93.9913644,48.8311583 C93.9701418,48.9389912 93.8345136,48.9756853 93.7617803,48.8931587 L93.1239764,48.1687661 L92.1659354,48.2837691 C92.0567301,48.2968441 91.979921,48.1790292 92.0359291,48.0844118" id="Fill-80" fill="#466EB6"></path>
                                <path d="M44.5971142,10.507481 L45.2174199,9.45937882 L44.7058978,8.3541266 C44.647641,8.2282278 44.7590247,8.09016793 44.8943016,8.12046518 L46.0824889,8.38674359 L46.9752457,7.55852495 C47.077002,7.46425902 47.242637,7.52752474 47.2556377,7.66558462 L47.3696918,8.87824799 L48.4329326,9.47168049 C48.5540141,9.53930452 48.5450894,9.71644856 48.4178237,9.77148974 L47.3001209,10.2546993 L47.064423,11.4496483 C47.0375784,11.5857399 46.8663918,11.6319941 46.7746846,11.5278869 L45.9699105,10.613908 L44.7610627,10.7589271 C44.6233263,10.7754465 44.5264891,10.6268423 44.5971142,10.507481" id="Fill-82" fill="#F79C8D"></path>
                                <polygon id="Fill-84" fill="#F48C7F" points="90.1233045 13.1105352 88.4855061 14.2039076 89.4014533 15.7945485 87.8355449 16.9428917 88.5234539 18.5709297 87.4921877 19.621914 88.0239486 20.1442077 89.4034209 18.7385839 88.751492 17.1956734 90.3804358 16.0010759 89.4796679 14.4366551 90.9638479 13.4458436"></polygon>
                                <polygon id="Fill-86" fill="#F48C7F" points="92.6391513 39.4627415 91.4804789 37.8702026 89.9289064 38.8501887 88.7183018 37.3316707 87.1199972 38.0853061 86.0283659 37.0971657 85.5282282 37.6499676 86.9883044 38.9715886 88.5029832 38.2573888 89.7622875 39.8370637 91.2884209 38.8731752 92.3383097 40.316407"></polygon>
                                <g id="Group-90" transform="translate(34.877667, 0.000000)">
                                    <mask id="mask-2" fill="white">
                                        <use xlink:href="#path-1"></use>
                                    </mask>
                                    <g id="Clip-89"></g>
                                    <polygon id="Fill-88" fill="#F48C7F" mask="url(#mask-2)" points="3.46062722 6.47675837 3.85387872 4.54680226 2.08382534 4.06253828 2.38733736 2.14425118 0.752841902 1.47272065 0.745322618 -3.51476253e-05 0 0.00376079591 0.0100491358 1.97350402 1.55902152 2.60988692 1.24328189 4.60549879 2.98417169 5.08181941 2.62781388 6.83069495"></polygon>
                                </g>
                                <polygon id="Fill-91" fill="#F7CC7F" points="23.0271782 9.04363865 23.7767876 10.4438498 25.3935038 10.3533095 26.1225932 11.9824019 27.8148536 11.3547356 28.7207516 13.1606206 30.3502576 12.7749809 31.5057677 14.3699801 30.9022573 14.8074274 30.0383127 13.6148685 28.3187861 14.021878 27.448025 12.2859368 25.7274443 12.9240068 24.9228107 11.1263463 23.3440423 11.2147778 22.6492464 9.91698685 21.6246562 10.1919116 21.4314739 9.47180702"></polygon>
                                <polygon id="Fill-93" fill="#50BFA5" points="16.0535418 20.0991766 14.8602948 20.2203656 14.4533399 18.3212691 12.6867299 18.2831691 12.1499093 16.9118493 11.4558865 17.1836811 12.1739429 19.0178247 13.8480024 19.0538862 14.2714013 21.0294639 16.0669641 20.8471883"></polygon>
                                <polygon id="Fill-95" fill="#50BFA5" points="13.9070394 40.6885149 13.4604501 41.8019917 11.5899757 41.2811742 10.7362911 42.8287241 9.27277146 42.6678183 9.19139454 43.4088708 11.1487975 43.6241149 11.9577881 42.1574748 13.903596 42.6993106 14.5756231 41.023753"></polygon>
                                <path d="M17.0774504,28.2337922 C18.401547,29.504168 18.4453978,31.6077534 17.1754821,32.9322565 C15.905426,34.2567596 13.8024862,34.3006238 12.4784598,33.030248 C11.1542929,31.7598723 11.1104422,29.6562869 12.3804983,28.3317838 C13.6504139,27.0072807 15.7533537,26.9634164 17.0774504,28.2337922" id="Fill-97" fill="#FFF3D9"></path>
                                <path d="M17.0049841,31.011966 L15.5914291,31.4466015 L15.1480022,32.8577786 C15.1121626,32.9717975 14.9612148,32.9952059 14.8925574,32.8974252 L14.042527,31.686941 L12.563758,31.7012109 C12.4442928,31.7023356 12.3753543,31.5659628 12.447174,31.4704316 L13.3352927,30.287714 L12.8648105,28.8853237 C12.8268627,28.7719375 12.9351544,28.6642452 13.0482248,28.7029779 L14.4471628,29.1824618 L15.6351394,28.3015217 C15.7311332,28.2303126 15.8670425,28.3001861 15.8651451,28.419688 L15.8415331,29.8987704 L17.0462348,30.7566536 C17.1435638,30.8259647 17.1191789,30.9768183 17.0049841,31.011966" id="Fill-99" fill="#FED333"></path>
                                <path d="M103.861731,33.764496 C105.185828,35.0348718 105.229678,37.1384571 103.959693,38.46289 C102.689707,39.7873931 100.586767,39.8313276 99.2627405,38.5609518 C97.9386439,37.2905058 97.8947228,35.1869204 99.1647087,33.8624876 C100.434695,32.5379845 102.537705,32.4941202 103.861731,33.764496" id="Fill-101" fill="#FFF3D9"></path>
                                <path d="M103.789335,36.5426346 L102.37578,36.9772701 L101.932283,38.3884473 C101.896514,38.5024662 101.745495,38.5258745 101.676908,38.4280938 L100.826878,37.2176799 L99.348109,37.2318795 C99.2286437,37.2330043 99.159635,37.0966315 99.2314547,37.0011002 L100.119573,35.8183826 L99.6491614,34.4159924 C99.6110731,34.3026764 99.7195053,34.1949138 99.8324351,34.2336465 L101.231514,34.7131304 L102.41942,33.8321903 C102.515414,33.7610515 102.651323,33.8307844 102.649426,33.9503566 L102.625814,35.429439 L103.830515,36.2873925 C103.927915,36.3567037 103.90353,36.5075573 103.789335,36.5426346" id="Fill-103" fill="#FED333"></path>
                                <path d="M88.8697696,29.5957275 L89.4505113,30.5607407 C89.513336,30.6652698 89.6687813,30.6522652 89.7134754,30.5387383 L90.1259116,29.4906361 L91.2228134,29.2363782 C91.3417165,29.2088928 91.3774155,29.0569847 91.2832488,28.9793788 L90.4142445,28.2631405 L90.511433,27.1410174 C90.5220443,27.0194769 90.3885946,26.9385671 90.285714,27.0041525 L89.3363166,27.6095352 L88.2993582,27.1702602 C88.1870609,27.1226703 88.0689308,27.2245984 88.0994999,27.3426945 L88.381719,28.4331144 L87.6437048,29.2838275 C87.5637334,29.3759143 87.6240282,29.5198087 87.7458827,29.5271897 L88.8697696,29.5957275 Z" id="Fill-105" fill="#F47458"></path>
                                <path d="M86.8314184,51.7000832 C86.8314184,52.0718045 86.5300849,52.3732305 86.1584777,52.3732305 C85.7867299,52.3732305 85.4854667,52.0718045 85.4854667,51.7000832 C85.4854667,51.3282213 85.7867299,51.0268656 86.1584777,51.0268656 C86.5300849,51.0268656 86.8314184,51.3282213 86.8314184,51.7000832" id="Fill-107" fill="#50BFA5"></path>
                                <path d="M8.06625675,31.2931118 C8.06625675,31.6649034 7.73983552,31.9663294 7.33723763,31.9663294 C6.93456946,31.9663294 6.60814823,31.6649034 6.60814823,31.2931118 C6.60814823,30.9213202 6.93456946,30.6198942 7.33723763,30.6198942 C7.73983552,30.6198942 8.06625675,30.9213202 8.06625675,31.2931118" id="Fill-109" fill="#50BFA5"></path>
                                <path d="M7.62510672,65.8602109 C7.62510672,65.8602109 7.27858722,66.0924664 6.98421078,66.0174613 C6.68990462,65.9424563 6.55476834,65.8333581 6.55476834,65.8333581 C6.55476834,65.8333581 6.71731136,66.1302149 6.95757706,66.2593473 C7.37191066,66.4819021 7.62510672,65.8602109 7.62510672,65.8602109" id="Fill-111" fill="#F47458"></path>
                                <path d="M0.787660654,64.2161666 L3.99389717,63.5544774 C4.15721319,63.5207357 4.32615111,63.573176 4.44554609,63.6945759 L6.7900165,66.0788502 C7.09071757,66.3847048 7.59612585,66.1982818 7.64524715,65.7634354 L8.02788732,62.3731657 C8.04742341,62.2004503 8.14700121,62.0489641 8.29429483,61.9681245 L11.1859864,60.380436 C11.5569611,60.1767906 11.5424847,59.6167484 11.1615311,59.4329263 L8.19169526,57.999325 C8.04046631,57.9262882 7.93315841,57.780285 7.90476784,57.6089051 L7.34749758,54.2433091 C7.27602925,53.811626 6.76169621,53.6519855 6.47715809,53.9732348 L4.25903975,56.4775031 C4.14603968,56.605089 3.98012353,56.6663161 3.81526148,56.6412207 L0.579158655,56.1489431 C0.164052045,56.0857476 -0.139319419,56.5469548 0.0657391704,56.9295015 L1.66467614,59.9107231 C1.74612334,60.0625609 1.75083167,60.2464532 1.67732541,60.4023681 L0.234606816,63.4637263 C0.0495762246,63.8563955 0.376348823,64.3010833 0.787660654,64.2161666" id="Fill-113" fill="#46C1E2"></path>
                            </g>
                        </g>
                    </g>
                </g>
            </g>
        </g>
    </g>
</svg>