<?xml version="1.0" encoding="UTF-8"?>
<svg xmlns="http://www.w3.org/2000/svg" xmlns:xlink="http://www.w3.org/1999/xlink" xmlns:svgjs="http://svgjs.com/svgjs" version="1.1" width="512" height="512" x="0" y="0" viewBox="0 0 511.391 511.391" style="enable-background:new 0 0 512 512" xml:space="preserve" class="">
  <g>
    <g xmlns="http://www.w3.org/2000/svg" id="XMLID_1291_">
      <path id="XMLID_1295_" d="m0 118.15v352.24h511.391v-352.24zm59.319 41.97h176.345v177.742h-176.345zm391.752 251.613h-376.752v-30h376.752zm0-73.871h-168.411v-30h168.411zm0-73.871h-168.411v-30h168.411zm0-73.871h-168.411v-30h168.411z" fill="#ffffff" data-original="#000000"/>
      <path id="XMLID_1300_" d="m89.319 190.12h116.345v117.742h-116.345z" fill="#ffffff" data-original="#000000"/>
      <path id="XMLID_1301_" d="m2.391 41.538h274.686v46.612h-274.686z" fill="#ffffff" data-original="#000000"/>
      <path id="XMLID_1302_" d="m462.619 88.15h47.772v-46.612-.537h-47.772z" fill="#ffffff" data-original="#000000"/>
      <path id="XMLID_1309_" d="m384.848 41.001h47.771v47.149h-47.771z" fill="#ffffff" data-original="#000000"/>
      <path id="XMLID_1310_" d="m307.077 41.001h47.771v47.149h-47.771z" fill="#ffffff" data-original="#000000"/>
    </g>
  </g>
</svg>
