<?xml version="1.0"?>
<svg xmlns="http://www.w3.org/2000/svg" xmlns:xlink="http://www.w3.org/1999/xlink" xmlns:svgjs="http://svgjs.com/svgjs" version="1.1" width="512" height="512" x="0" y="0" viewBox="0 0 512 512" style="enable-background:new 0 0 512 512" xml:space="preserve" class=""><g><path xmlns="http://www.w3.org/2000/svg" d="m332.733 327.604v-34.825c37.278-10.05 64.801-44.27 64.801-84.823v-11.26c-10.627 4.371-22.258 6.782-34.442 6.782h-125.494c-5.26 0-10.308-.903-15-2.561v7.038c0 40.553 27.523 74.773 64.801 84.823v34.825c0 9.422 5.694 17.507 13.813 20.972l-23.542 48.379 20.063 115.046h24.667l20.063-115.045-23.542-48.379c8.118-3.465 13.812-11.551 13.812-20.972z" fill="#ffffff" data-original="#000000" class=""/><path xmlns="http://www.w3.org/2000/svg" d="m237.598 173.478h125.494c33.543 0 60.833-27.29 60.833-60.833v-41.912c0-8.284-6.716-15-15-15h-122.529c-35.178 0-63.798 28.62-63.798 63.798v38.947c0 8.284 6.715 15 15 15z" fill="#ffffff" data-original="#000000" class=""/><path xmlns="http://www.w3.org/2000/svg" d="m483.122 373.52-48.654-51.088c-1.416-1.486-3.378-2.328-5.431-2.328h-66.304v7.5c0 11.679-3.806 22.484-10.239 31.236l14.596 20.985c4.53 6.513 6.296 14.555 4.911 22.366l-19.063 107.546c-.136.766-.3 1.521-.491 2.264h59.889v-79.862c0-8.284 6.716-15 15-15s15 6.716 15 15v79.861h44.914c4.142 0 7.5-3.357 7.5-7.5v-101.879c0-10.893-4.129-21.228-11.628-29.101z" fill="#ffffff" data-original="#000000" class=""/><path xmlns="http://www.w3.org/2000/svg" d="m248.13 402.19c-1.385-7.812.381-15.854 4.912-22.366l14.596-20.985c-6.434-8.752-10.239-19.557-10.239-31.236v-7.5h-133.846v-50.068h-66.704v59.108c0 31.932 25.871 57.91 57.671 57.91h79.033v117.447c0 4.143 3.358 7.5 7.5 7.5h66.631c-.191-.743-.356-1.498-.491-2.264z" fill="#ffffff" data-original="#000000" class=""/><path xmlns="http://www.w3.org/2000/svg" d="m75.201 206.585c-10.877 5.521-18.352 16.847-18.352 29.894v3.557h66.704v-3.557c0-13.047-7.475-24.373-18.352-29.894v-60.197h21.884c19.887 0 36.066-16.179 36.066-36.066v-74.256c0-19.887-16.179-36.066-36.066-36.066h-73.769c-19.887 0-36.066 16.179-36.066 36.066v74.255c0 19.887 16.179 36.066 36.066 36.066h21.884v60.198z" fill="#ffffff" data-original="#000000" class=""/></g></svg>
