<?xml version="1.0"?>
<svg xmlns="http://www.w3.org/2000/svg" xmlns:xlink="http://www.w3.org/1999/xlink" xmlns:svgjs="http://svgjs.com/svgjs" version="1.1" width="512" height="512" x="0" y="0" viewBox="0 0 512.001 512.001" style="enable-background:new 0 0 512 512" xml:space="preserve"><g>
<g xmlns="http://www.w3.org/2000/svg">
	<g>
		<path d="M315.001,481.91h-16.518c-6.969-34.191-37.266-60-73.482-60h-120c-36.216,0-66.513,25.809-73.482,60H15.001    c-8.291,0-15,6.709-15,15c0,8.291,6.709,15,15,15c100.195,0,199.901,0,300,0c8.291,0,15-6.709,15-15    C330.001,488.619,323.292,481.91,315.001,481.91z" fill="#ffffff" data-original="#000000"/>
	</g>
</g>
<g xmlns="http://www.w3.org/2000/svg">
	<g>
		<path d="M390.626,136.156L263.347,8.878c-11.717-11.717-30.712-11.717-42.427,0c-11.715,11.715-11.715,30.71,0,42.426    L348.2,178.583c11.715,11.715,30.71,11.715,42.426,0C402.341,166.866,402.341,147.873,390.626,136.156z" fill="#ffffff" data-original="#000000"/>
	</g>
</g>
<g xmlns="http://www.w3.org/2000/svg">
	<g>
		<path d="M178.494,348.289l-127.28-127.28c-11.715-11.715-30.71-11.715-42.426,0c-11.717,11.715-11.717,30.71,0,42.427    l127.279,127.279c11.717,11.715,30.71,11.715,42.427,0C190.209,379,190.209,360.005,178.494,348.289z" fill="#ffffff" data-original="#000000"/>
	</g>
</g>
<g xmlns="http://www.w3.org/2000/svg">
	<g>
		
			<rect x="109.701" y="109.798" transform="matrix(0.7071 -0.7071 0.7071 0.7071 -82.7868 199.7284)" width="179.998" height="179.998" fill="#ffffff" data-original="#000000"/>
	</g>
</g>
<g xmlns="http://www.w3.org/2000/svg">
	<g>
		<path d="M498.822,435.091l-21.343-23.163l-63.64,63.64l21.343,23.163c17.574,17.573,46.066,17.573,63.64,0    C516.395,481.157,516.395,452.665,498.822,435.091z" fill="#ffffff" data-original="#000000"/>
	</g>
</g>
<g xmlns="http://www.w3.org/2000/svg">
	<g>
		<path d="M355.555,292.004c2.529-9.922,0.411-20.802-7.355-28.568c-11.717-11.717-30.712-11.717-42.427,0l-42.426,42.426    c-11.717,11.715-11.717,30.71,0,42.427c7.766,7.766,18.647,9.884,28.568,7.355l100.71,98.71l63.64-63.64L355.555,292.004z" fill="#ffffff" data-original="#000000"/>
	</g>
</g>
<g xmlns="http://www.w3.org/2000/svg">
</g>
<g xmlns="http://www.w3.org/2000/svg">
</g>
<g xmlns="http://www.w3.org/2000/svg">
</g>
<g xmlns="http://www.w3.org/2000/svg">
</g>
<g xmlns="http://www.w3.org/2000/svg">
</g>
<g xmlns="http://www.w3.org/2000/svg">
</g>
<g xmlns="http://www.w3.org/2000/svg">
</g>
<g xmlns="http://www.w3.org/2000/svg">
</g>
<g xmlns="http://www.w3.org/2000/svg">
</g>
<g xmlns="http://www.w3.org/2000/svg">
</g>
<g xmlns="http://www.w3.org/2000/svg">
</g>
<g xmlns="http://www.w3.org/2000/svg">
</g>
<g xmlns="http://www.w3.org/2000/svg">
</g>
<g xmlns="http://www.w3.org/2000/svg">
</g>
<g xmlns="http://www.w3.org/2000/svg">
</g>
</g></svg>
