<?xml version="1.0"?>
<svg xmlns="http://www.w3.org/2000/svg" xmlns:xlink="http://www.w3.org/1999/xlink" xmlns:svgjs="http://svgjs.com/svgjs" version="1.1" width="512" height="512" x="0" y="0" viewBox="0 0 512 512" style="enable-background:new 0 0 512 512" xml:space="preserve" class=""><g><path xmlns="http://www.w3.org/2000/svg" d="m60 384.578125v-163.578125h-30v163.578125c-17.460938 6.195313-30 22.867187-30 42.421875v85h90v-85c0-19.554688-12.539062-36.226562-30-42.421875zm0 0" fill="#ffffff" data-original="#000000" class=""/><path xmlns="http://www.w3.org/2000/svg" d="m482 384.578125v-163.578125h-30v163.578125c-17.460938 6.195313-30 22.867187-30 42.421875v85h90v-85c0-19.554688-12.539062-36.226562-30-42.421875zm0 0" fill="#ffffff" data-original="#000000" class=""/><path xmlns="http://www.w3.org/2000/svg" d="m0 0v191h512v-191zm157.441406 78.03125h-28.660156v13.789062h23.613281v11.988282h-23.613281v25.238281h-14.78125v-63.992187h43.441406zm22.261719 51.015625h-14.777344v-63.992187h14.777344zm68.410156 0h-11.898437l-29.472656-36.59375v36.59375h-14.78125v-63.992187h11.535156l29.835937 37.582031v-37.582031h14.78125zm27.039063 0h-14.78125v-63.992187h14.78125zm57.097656-9.6875c-1.351562 2.492187-3.140625 4.503906-5.363281 6.039063-2.222657 1.53125-4.792969 2.644531-7.707031 3.332031-2.914063.691406-5.902344 1.039062-8.96875 1.039062-2.34375 0-4.730469-.179687-7.164063-.542969-2.433594-.359374-4.824219-.882812-7.164063-1.578124-2.347656-.6875-4.628906-1.515626-6.851562-2.476563s-4.265625-2.074219-6.128906-3.335937l6.488281-12.886719c.300781.300781 1.113281.871093 2.433594 1.710937 1.320312.84375 2.945312 1.683594 4.867187 2.523438 1.921875.84375 4.085938 1.59375 6.488282 2.253906 2.40625.660156 4.835937.992188 7.300781.992188 5.230469 0 7.84375-1.59375 7.84375-4.777344 0-1.203125-.390625-2.195313-1.171875-2.976563s-1.863282-1.488281-3.246094-2.117187-3.003906-1.214844-4.867188-1.757813c-1.863281-.539062-3.90625-1.140625-6.128906-1.800781-2.945312-.902344-5.5-1.878906-7.660156-2.929688-2.164062-1.050781-3.96875-2.265624-5.410156-3.648437s-2.507813-2.976563-3.199219-4.777344c-.691406-1.804687-1.035156-3.90625-1.035156-6.308593 0-3.367188.628906-6.339844 1.890625-8.925782 1.261718-2.582031 2.976562-4.761718 5.136718-6.53125 2.164063-1.773437 4.671876-3.109375 7.527344-4.011718 2.855469-.902344 5.871094-1.351563 9.058594-1.351563 2.285156 0 4.507812.210937 6.667969.628906 2.164062.421875 4.222656.960938 6.175781 1.621094 1.953125.664063 3.800781 1.414063 5.542969 2.253906 1.742187.84375 3.304687 1.683594 4.6875 2.523438l-6.398438 12.257812c-.242187-.238281-.902343-.6875-1.984375-1.351562-1.082031-.660157-2.433594-1.351563-4.054687-2.070313-1.625-.722656-3.394531-1.355468-5.320313-1.894531-1.921875-.539063-3.84375-.8125-5.765625-.8125-2.523437 0-4.460937.449219-5.816406 1.351563-1.351563.902343-2.023437 2.226562-2.023437 3.96875 0 1.082031.296874 1.980468.898437 2.703124.601563.71875 1.457031 1.367188 2.570313 1.9375 1.109374.570313 2.492187 1.097657 4.144531 1.578126 1.652343.480468 3.5625 1.023437 5.726562 1.621093 3.0625.84375 5.824219 1.757813 8.289063 2.75 2.464844.992188 4.566406 2.222657 6.308594 3.695313 1.746093 1.472656 3.082031 3.257812 4.015624 5.363281.929688 2.101563 1.394532 4.628906 1.394532 7.570313 0 3.605468-.675782 6.652343-2.027344 9.148437zm65.753906 9.6875h-14.785156v-26.226563h-25.503906v26.226563h-14.78125v-63.992187h14.78125v24.785156h25.503906v-24.785156h14.785156zm0 0" fill="#ffffff" data-original="#000000" class=""/></g></svg>
