<?xml version="1.0"?>
<svg xmlns="http://www.w3.org/2000/svg" xmlns:xlink="http://www.w3.org/1999/xlink" xmlns:svgjs="http://svgjs.com/svgjs" version="1.1" width="512" height="512" x="0" y="0" viewBox="0 0 53 53" style="enable-background:new 0 0 512 512" xml:space="preserve"><g><g xmlns="http://www.w3.org/2000/svg" id="_x38_4"><path d="m49.5 45.2107544v1.2084961c0 2.2537346-1.8270149 4.0807495-4.0807495 4.0807495h-37.8385005c-2.253736 0-4.08075-1.8270149-4.08075-4.0807495v-1.2084961c0-.5526886.4480433-1.0007324 1.0007329-1.0007324h17.0918789c.3189201 0 .618742.1520081.8072357.4092636l.8802986 1.2014313c.1884937.2572556.4883156.4092636.8072357.4092636h4.8152275c.3189201 0 .618742-.1520081.8072357-.4092636l.8802986-1.2014313c.1884937-.2572556.4883156-.4092636.8072357-.4092636h17.1018887c.5504032 0 1.000732.4503288 1.000732 1.0007324z" fill="#ffffff" data-original="#000000"/><path d="m43.548008 13.1022577h-5.069397c-.000351 0-.0006409.0002604-.0006828.0006113-.2302551 1.8897181-1.8501129 3.3494244-3.7999153 3.3494244-1.1700439 0-2.2200317-.5300283-2.9299908-1.3600454l-.8699951.0300293h-.3200073v1.8092642c0 .0004044.0003281.0007324.0007324.0007324h12.5884991c.0004044 0 .0007324.0003281.0007324.0007343v21.4385357c0 .0004044-.0003281.0007324-.0007324.0007324h-33.3085309c-.0004053 0-.0007334-.0003281-.0007334-.0007324v-21.4385357c0-.0004063.0003281-.0007343.0007334-.0007343h12.588562c.0004044 0 .0007324-.0003281.0007324-.0007324v-1.8092642h-1.2200317c-.7000122.8200073-1.7399902 1.3300161-2.8999634 1.3300161-1.9498024 0-3.5696583-1.4597063-3.7999744-3.3494244-.0000429-.000351-.0003309-.0006113-.0006847-.0006113h-5.0793467c-1.8699946 0-3.4299922 1.5499878-3.4299922 3.4299917v25.6792603c0 .0004044.0003281.0007324.0007329.0007324h15.5988712c.9538307 0 1.8506718.4541397 2.4151764 1.2229881l.5849762.7967339c.0001373.0001869.0003567.0002975.0005894.0002975h3.7996178l.5800171-.7999878c.5599976-.75 1.460022-1.210022 2.4000244-1.2200317h.0099487 15.5892925c.0004044 0 .0007324-.0003281.0007324-.0007324v-25.6792602c0-1.880004-1.539978-3.4299918-3.4299926-3.4299918z" fill="#ffffff" data-original="#000000"/><g><path d="m28.5587521 13.1222773c-.0004044 0-.0007324.0003281-.0007324.0007324v14.2292471c.0899658.0700073.1699829.1400146.25.2300415.2799683.3299561.4499512.7599487.4499512 1.25 0 .3299561-.0699463.6299438-.2099609.8899536.1400146.2600098.2099609.5599976.2099609.8800049 0 .3300171-.0699463.6199951-.2099609.8800049.1400146.2700195.2099609.5599976.2099609.8900146 0 .9799805-.6799927 1.7600098-1.5299683 1.7600098h-2.4700317c-.8499756 0-1.5299683-.7800293-1.5299683-1.7600098 0-.3300171.0700073-.6199951.210022-.8900146-.1400146-.2600098-.210022-.5499878-.210022-.8800049 0-.3200073.0700073-.6199951.210022-.8800049-.1400146-.2600098-.210022-.5599976-.210022-.8899536 0-.6298714.27985-1.169817.6997471-1.479845.0001698-.0001259.0002651-.0003166.0002651-.0005283v-14.2289153c0-.0004044-.0003281-.0007324-.0007324-.0007324h-2.3192749c.0299683-.1600342.039978-.3400269.039978-.5100098v-8.2700195c0-.1699829-.0100098-.3499758-.039978-.509949h8.7700195c-.0300293.1599731-.0400391.3399661-.0400391.509949v8.2700195c0 .1699829.0100098.3499756.0400391.5100098z" fill="#ffffff" data-original="#000000"/><path d="m20.1476936 4.3394308.0000114 8.2729359c0 1.0158834-.8235359 1.8394203-1.8394203 1.8394175h-.0000076c-1.0158863-.0000019-1.8394222-.8235397-1.8394241-1.839426l-.0000095-8.2729406c-.0000019-1.0158836.8235359-1.83942 1.8394184-1.8394176h.0000038c1.0158882.0000024 1.8394279.8235426 1.8394279 1.8394308z" fill="#ffffff" data-original="#000000"/><path d="m36.5171204 4.3394642.0000114 8.2729406c0 1.0158844-.8235359 1.8394203-1.8394203 1.8394175h-.0000076c-1.0158882-.0000019-1.8394241-.8235397-1.8394241-1.839426l-.0000114-8.2729406c0-1.0158834.8235359-1.8394196 1.8394203-1.8394172h.0000076c1.0158843.0000023 1.8394241.8235403 1.8394241 1.8394257z" fill="#ffffff" data-original="#000000"/></g><path d="m14.5287228 20.9322739h7.8985596c.0004044 0 .0007324.0003281.0007324.0007343v4.718504c0 .0004044-.0003281.0007324-.0007324.0007324h-7.9085694c-.3743992 0-.6807261-.3063259-.6807261-.6807251v-3.3485088c0-.3799058.3108311-.6907368.6907359-.6907368z" fill="#ffffff" data-original="#000000"/><path d="m39.1479836 21.6230106v3.3485088c0 .3759556-.3047714.6807251-.6807251.6807251h-7.9085064c-.0004044 0-.0007324-.0003281-.0007324-.0007324v-4.718504c0-.0004063.0003281-.0007343.0007324-.0007343h7.8984966c.3799057.0000001.6907349.3108311.6907349.6907368z" fill="#ffffff" data-original="#000000"/><path d="m21.7280025 32.3722763c0 .7295494.1997738 1.4191666.5393734 1.99897.0002766.000473-.0000515.00103-.0006008.00103h-7.7380524c-.3799047 0-.6907358-.3108292-.6907358-.6907349v-3.3385601c0-.3799057.3108311-.6907368.6907358-.6907368h7.2892456c0 .0200195 0 .0500488.0100098.0700073-.0700073.2900391-.0999756.5800171-.0999756.8800049s.0299683.6000366.0999756.8900146c-.0700073.2799684-.0999756.5800172-.0999756.880005z" fill="#ffffff" data-original="#000000"/><path d="m39.1479836 30.3429813v3.3485699c0 .3759537-.3047714.6807251-.6807251.6807251h-7.7580566c-.0005531 0-.0008774-.0005646-.0005932-.0010376.3496494-.5798035.5493622-1.2694168.5493622-1.9989624 0-.2999878-.0299683-.6000366-.0999756-.8800049.0700073-.289978.0999756-.5900269.0999756-.8900146s-.0299683-.5899658-.0999756-.8800049c.0100098-.0199585.0100098-.0499878.0100098-.0700073h7.2892437c.3799056 0 .6907348.310831.6907348.6907367z" fill="#ffffff" data-original="#000000"/></g></g></svg>
