<?xml version="1.0" encoding="UTF-8"?>
<svg xmlns="http://www.w3.org/2000/svg" viewBox="0 0 60 60" width="512" height="512"><g id="Icons"><path d="M52,31.744V20.674l1.434.882A3.035,3.035,0,0,0,55,22a3,3,0,0,0,1.574-5.552L46,9.941V5a3,3,0,0,0-3-3H40a3,3,0,0,0-2.946,2.434L30.574.448a2.99,2.99,0,0,0-3.148,0l-26,16a3,3,0,0,0,3.15,5.1L6,20.674V50a3,3,0,0,0,3,3H32.334A14.989,14.989,0,1,0,52,31.744ZM3.524,19.849a1,1,0,0,1-1.051-1.7l26-16a.989.989,0,0,1,1.052,0l7.951,4.891A1,1,0,0,0,39,6.19V5a1,1,0,0,1,1-1h3a1,1,0,0,1,1,1v5.5a1,1,0,0,0,.477.852l11.049,6.8a1,1,0,0,1,.324,1.373l0,.007a1.014,1.014,0,0,1-1.371.318L29.524,4.5a1,1,0,0,0-1.048,0ZM13,51V26a1,1,0,0,1,1-1H25a1,1,0,0,1,1,1V51Zm15,0V26a3,3,0,0,0-3-3H14a3,3,0,0,0-3,3V51H9a1,1,0,0,1-1-1V19.443L29,6.524,50,19.443V30.875a14.9,14.9,0,0,0-3-.726V26a3,3,0,0,0-3-3H34a3,3,0,0,0-3,3v9a2.979,2.979,0,0,0,1.13,2.335A14.877,14.877,0,0,0,31.261,51Zm5.275-15.33A.992.992,0,0,1,33,35V26a1,1,0,0,1,1-1H44a1,1,0,0,1,1,1v4A14.972,14.972,0,0,0,33.275,35.67ZM45,58A13,13,0,1,1,58,45,13.015,13.015,0,0,1,45,58Z"/><path d="M50.293,38.293l-12,12a1,1,0,1,0,1.414,1.414l12-12a1,1,0,0,0-1.414-1.414Z"/><path d="M41,44a3,3,0,1,0-3-3A3,3,0,0,0,41,44Zm0-4a1,1,0,1,1-1,1A1,1,0,0,1,41,40Z"/><path d="M49,46a3,3,0,1,0,3,3A3,3,0,0,0,49,46Zm0,4a1,1,0,1,1,1-1A1,1,0,0,1,49,50Z"/></g></svg>
