<?xml version="1.0"?>
<svg xmlns="http://www.w3.org/2000/svg" xmlns:xlink="http://www.w3.org/1999/xlink" xmlns:svgjs="http://svgjs.com/svgjs" version="1.1" width="512" height="512" x="0" y="0" viewBox="0 0 512 512" style="enable-background:new 0 0 512 512" xml:space="preserve"><g><path xmlns="http://www.w3.org/2000/svg" d="m347.406 326.195 164.594 164.594v-287.291z" fill="#ffffff" data-original="#000000"/><path xmlns="http://www.w3.org/2000/svg" d="m256 394.75-67.165-50.374-167.624 167.624h469.578l-167.624-167.624z" fill="#ffffff" data-original="#000000"/><path xmlns="http://www.w3.org/2000/svg" d="m497.005 177.254-241.005-177.254-241.011 177.257 241.011 179.993zm-346.005 18.746c0-57.891 47.109-105 105-105s105 47.109 105 105c0 24.814-20.186 45-45 45-11.567 0-22.02-4.508-30-11.704-7.98 7.196-18.433 11.704-30 11.704-24.814 0-45-20.186-45-45s20.186-45 45-45 45 20.186 45 45c0 8.276 6.724 15 15 15s15-6.724 15-15c0-41.353-33.647-75-75-75s-75 33.647-75 75 33.647 75 75 75c8.569 0 16.978-1.436 24.99-4.277l10.02 28.271c-11.25 3.985-23.028 6.006-35.01 6.006-57.891 0-105-47.109-105-105z" fill="#ffffff" data-original="#000000"/><path xmlns="http://www.w3.org/2000/svg" d="m256 181c-8.276 0-15 6.724-15 15s6.724 15 15 15 15-6.724 15-15-6.724-15-15-15z" fill="#ffffff" data-original="#000000"/><path xmlns="http://www.w3.org/2000/svg" d="m0 203.504v287.285l164.594-164.594z" fill="#ffffff" data-original="#000000"/></g></svg>
