<?xml version="1.0" encoding="UTF-8"?>
<svg xmlns="http://www.w3.org/2000/svg" xmlns:xlink="http://www.w3.org/1999/xlink" xmlns:svgjs="http://svgjs.com/svgjs" version="1.1" width="512" height="512" x="0" y="0" viewBox="0 0 512.256 512.256" style="enable-background:new 0 0 512 512" xml:space="preserve">
  <g>
    <g xmlns="http://www.w3.org/2000/svg">
      <path d="m512.256 315.484v-118.713h-52.036c-4.334-14.931-10.3-29.313-17.824-42.97l36.813-36.813-83.942-83.942-36.813 36.814c-13.657-7.524-28.039-13.49-42.97-17.824v-52.036h-118.713v52.036c-14.931 4.334-29.312 10.3-42.969 17.824l-36.813-36.813-83.942 83.942 36.813 36.813c-7.524 13.657-13.489 28.038-17.823 42.97h-52.037v118.713h52.037c4.334 14.932 10.299 29.313 17.823 42.969l-36.813 36.813 83.942 83.942 36.813-36.813c9.628 5.305 19.622 9.817 29.909 13.547v-81.73c-40.186-24.974-64.792-68.836-64.792-116.559 0-55.449 33.043-105.139 84.182-126.588l20.802-8.726v119.531l32.24 19.377 32.24-19.377v-119.531l20.802 8.726c51.139 21.449 84.182 71.139 84.182 126.588 0 47.673-24.57 91.513-64.696 116.498v81.757c10.235-3.721 20.187-8.222 29.785-13.512l36.812 36.813 83.942-83.942-36.813-36.813c7.523-13.656 13.489-28.037 17.823-42.969h52.036z" fill="#ffffff" data-original="#000000"/>
      <path d="m298.67 356.513 7.929-4.238c35.016-18.717 56.768-54.974 56.768-94.621 0-35.252-17.093-67.525-44.983-87.36v88.549l-62.24 37.408-62.24-37.408v-88.549c-27.891 19.835-44.984 52.108-44.984 87.36 0 39.688 21.784 75.963 56.852 94.666l7.941 4.235v155.701h84.958v-155.743z" fill="#ffffff" data-original="#000000"/>
    </g>
  </g>
</svg>
