<?xml version="1.0"?>
<svg xmlns="http://www.w3.org/2000/svg" xmlns:xlink="http://www.w3.org/1999/xlink" xmlns:svgjs="http://svgjs.com/svgjs" version="1.1" width="512" height="512" x="0" y="0" viewBox="0 0 511.999 511.999" style="enable-background:new 0 0 512 512" xml:space="preserve" class=""><g>
<g xmlns="http://www.w3.org/2000/svg">
	<g>
		<path d="M330.999,67.4V30h15c8.291,0,15-6.709,15-15s-6.709-15-15-15c-60.97,0-59.03,0-120,0c-8.291,0-15,6.709-15,15    s6.709,15,15,15h15v37.396c-69.15,19.654-120,83.238-120,158.604c0,90.981,74.019,165,165,165c9.595,0,19.072-1.11,28.453-2.75    c-8.269-9.282-13.453-21.374-13.453-34.75c0-9.066,2.538-17.45,6.612-24.888c-7.055,1.476-14.249,2.388-21.612,2.388    c-57.891,0-105-47.109-105-105s47.109-105,105-105c29.945,0,57.581,12.98,77.082,34.135c6.28-2.663,13.18-4.135,20.418-4.135    h48.772C411.397,110.51,374.655,80.025,330.999,67.4z" fill="#ffffff" data-original="#000000" class=""/>
	</g>
</g>
<g xmlns="http://www.w3.org/2000/svg">
	<g>
		<path d="M285.999,151c-8.291,0-15,6.709-15,15v45h-45c-8.291,0-15,6.709-15,15s6.709,15,15,15h60c8.291,0,15-6.709,15-15v-60    C300.999,157.709,294.29,151,285.999,151z" fill="#ffffff" data-original="#000000" class=""/>
	</g>
</g>
<g xmlns="http://www.w3.org/2000/svg">
	<g>
		<path d="M489.499,181h-106c-12.426,0-22.5,10.073-22.5,22.5c0,12.426,10.074,22.5,22.5,22.5h106c12.426,0,22.5-10.074,22.5-22.5    C511.999,191.073,501.925,181,489.499,181z" fill="#ffffff" data-original="#000000" class=""/>
	</g>
</g>
<g xmlns="http://www.w3.org/2000/svg">
	<g>
		<path d="M458.499,256h-105c-12.426,0-22.5,10.073-22.5,22.5c0,12.426,10.074,22.5,22.5,22.5h105c12.426,0,22.5-10.074,22.5-22.5    C480.999,266.073,470.925,256,458.499,256z" fill="#ffffff" data-original="#000000" class=""/>
	</g>
</g>
<g xmlns="http://www.w3.org/2000/svg">
	<g>
		<path d="M428.499,331h-75c-12.426,0-22.5,10.073-22.5,22.5c0,12.426,10.074,22.5,22.5,22.5h75c12.426,0,22.5-10.074,22.5-22.5    C450.999,341.073,440.925,331,428.499,331z" fill="#ffffff" data-original="#000000" class=""/>
	</g>
</g>
<g xmlns="http://www.w3.org/2000/svg">
	<g>
		<path d="M398.499,406h-45c-12.426,0-22.5,10.073-22.5,22.5c0,12.426,10.074,22.5,22.5,22.5h45c12.426,0,22.5-10.074,22.5-22.5    C420.999,416.073,410.925,406,398.499,406z" fill="#ffffff" data-original="#000000" class=""/>
	</g>
</g>
<g xmlns="http://www.w3.org/2000/svg">
	<g>
		<path d="M301,428.499c0-2.953,0.403-5.803,0.873-8.624c-5.287,0.431-10.544,1.125-15.874,1.125c-107.52,0-195-87.48-195-195    c0-70.768,38.026-132.669,94.59-166.844c-0.756-2.789-1.271-6.632-2.188-9.381l-3.164-9.507    c-1.699-5.068-5.947-8.862-11.177-9.946c-5.2-1.113-10.635,0.674-14.209,4.644l-82.295,92.436    c-7.455,8.29-11.557,18.984-11.557,30.117v133.623c0,12.026-5.688,23.32-14.184,31.831L4.394,365.395    c-5.859,5.859-5.859,15.352,0,21.211l121,120.999c5.859,5.859,15.352,5.859,21.211,0l42.422-43.422    c8.511-8.496,19.805-13.184,31.831-13.184h85.408C302.988,444.153,301,436.581,301,428.499z" fill="#ffffff" data-original="#000000" class=""/>
	</g>
</g>
<g xmlns="http://www.w3.org/2000/svg">
</g>
<g xmlns="http://www.w3.org/2000/svg">
</g>
<g xmlns="http://www.w3.org/2000/svg">
</g>
<g xmlns="http://www.w3.org/2000/svg">
</g>
<g xmlns="http://www.w3.org/2000/svg">
</g>
<g xmlns="http://www.w3.org/2000/svg">
</g>
<g xmlns="http://www.w3.org/2000/svg">
</g>
<g xmlns="http://www.w3.org/2000/svg">
</g>
<g xmlns="http://www.w3.org/2000/svg">
</g>
<g xmlns="http://www.w3.org/2000/svg">
</g>
<g xmlns="http://www.w3.org/2000/svg">
</g>
<g xmlns="http://www.w3.org/2000/svg">
</g>
<g xmlns="http://www.w3.org/2000/svg">
</g>
<g xmlns="http://www.w3.org/2000/svg">
</g>
<g xmlns="http://www.w3.org/2000/svg">
</g>
</g></svg>
