<?xml version="1.0"?>
<svg xmlns="http://www.w3.org/2000/svg" xmlns:xlink="http://www.w3.org/1999/xlink" xmlns:svgjs="http://svgjs.com/svgjs" version="1.1" width="512" height="512" x="0" y="0" viewBox="0 0 66 66" style="enable-background:new 0 0 512 512" xml:space="preserve"><g><g xmlns="http://www.w3.org/2000/svg"><path d="m62.35 1.61h-58.7c-1.46 0-2.65 1.18-2.65 2.65v10.29h64v-10.29c0-1.47-1.19-2.65-2.65-2.65zm-55.45 8.85c-1.26 0-2.29-1.02-2.29-2.29s1.03-2.29 2.29-2.29 2.29 1.02 2.29 2.29-1.02 2.29-2.29 2.29zm8.14 0c-1.26 0-2.29-1.02-2.29-2.29s1.02-2.29 2.29-2.29c1.26 0 2.29 1.02 2.29 2.29s-1.03 2.29-2.29 2.29zm8.14 0c-1.26 0-2.29-1.02-2.29-2.29s1.02-2.29 2.29-2.29c1.26 0 2.29 1.02 2.29 2.29s-1.03 2.29-2.29 2.29z" fill="#ffffff" data-original="#000000"/><path d="m1 61.74c0 1.46 1.19 2.65 2.65 2.65h58.69c1.48 0 2.66-1.19 2.66-2.65v-45.19h-64zm26.37-1.43c-.89 0-1.6-.72-1.6-1.6s.72-1.6 1.6-1.6c.89 0 1.6.72 1.6 1.6s-.72 1.6-1.6 1.6zm5.63 0c-.89 0-1.6-.72-1.6-1.6s.72-1.6 1.6-1.6 1.6.72 1.6 1.6-.71 1.6-1.6 1.6zm5.63 0c-.89 0-1.6-.72-1.6-1.6s.72-1.6 1.6-1.6 1.6.72 1.6 1.6-.71 1.6-1.6 1.6zm8.05-4.89h-27.36c-.55 0-1-.45-1-1s.45-1 1-1h27.36c.55 0 1 .45 1 1s-.45 1-1 1zm2.78-4.54h-32.92c-.55 0-1-.45-1-1s.45-1 1-1h32.93c.55 0 1 .45 1 1s-.45 1-1.01 1zm0-4.55h-32.92c-.55 0-1-.45-1-1s.45-1 1-1h32.93c.55 0 1 .45 1 1s-.45 1-1.01 1zm-4.3-25.42h13.94v18.68h-13.94zm-19.13 0h13.94v18.68h-13.94zm-19.13 0h13.94v18.68h-13.94z" fill="#ffffff" data-original="#000000"/></g></g></svg>
